<?xml version="1.0" encoding="UTF-8"?>
<svg width="48px" height="48px" viewBox="0 0 48 48" version="1.1" xmlns="http://www.w3.org/2000/svg" xmlns:xlink="http://www.w3.org/1999/xlink">
    <title>icon_待审核文章</title>
    <defs>
        <linearGradient x1="36.8669694%" y1="38.7293748%" x2="70.5892275%" y2="103.824812%" id="linearGradient-1">
            <stop stop-color="#71D8FF" stop-opacity="0.5" offset="0%"></stop>
            <stop stop-color="#FFFFFF" offset="100%"></stop>
        </linearGradient>
    </defs>
    <g id="页面-1" stroke="none" stroke-width="1" fill="none" fill-rule="evenodd">
        <g id="生产主面板" transform="translate(-96.000000, -200.000000)" fill-rule="nonzero">
            <g id="icon_待审核文章" transform="translate(96.000000, 200.000000)">
                <rect id="矩形" fill="#000000" opacity="0" x="0" y="0" width="48" height="48"></rect>
                <path d="M24,3.99999998 C30.075,3.99999998 35,8.925 35,15 C35,18.086 33.729,20.876 31.682,22.873 C30.9312197,23.5397227 30.5017165,24.4959133 30.502,25.5 C30.5018578,27.3964862 32.0121979,28.9480658 33.908,28.999 L33.909,29 L39,29 C40.6568542,29 42,30.3431458 42,32 L42,41 C42,42.6568543 40.6568542,44 39,44 L9,44 C7.34314575,44 6,42.6568543 6,41 L6,32 C6,30.3431458 7.34314575,29 9,29 L14.091,29 L14.091,28.998 L14.206,28.995 C15.636643,28.9167771 16.8751361,27.9744883 17.332119,26.6165396 C17.7891019,25.2585908 17.3722777,23.7592474 16.28,22.832 L16.318,22.873 L16.086,22.64 C14.1030295,20.5914927 12.9960952,17.8510593 13,15 C13,8.925 17.925,3.99999998 24,3.99999998 Z M34.5,35 L13.5,35 C12.6715729,35 12,35.6715729 12,36.5 C12,37.3284271 12.6715729,38 13.5,38 L34.5,38 C35.3284271,38 36,37.3284271 36,36.5 C36,35.6715729 35.3284271,35 34.5,35 Z" id="形状" fill="#FFFFFF"></path>
                <path d="M33.4047275,9.29162937 C34.416992,10.9558052 35,12.9098357 35,15 C35,18.086 33.729,20.876 31.682,22.873 C30.9312197,23.5397227 30.5017165,24.4959133 30.502,25.5 C30.5018578,27.3964862 32.0121979,28.9480658 33.908,28.999 L14.091,29 L14.206,28.995 C15.636643,28.9167771 16.8751361,27.9744883 17.332119,26.6165396 C17.7891019,25.2585908 17.3722777,23.7592474 16.28,22.832 L16.318,22.873 L16.086,22.64 C23,27 36,22 33.4047275,9.29162937 Z" id="路径备份-2" fill="url(#linearGradient-1)"></path>
            </g>
        </g>
    </g>
</svg>