<?xml version="1.0" encoding="UTF-8"?>
<svg width="48px" height="48px" viewBox="0 0 48 48" version="1.1" xmlns="http://www.w3.org/2000/svg" xmlns:xlink="http://www.w3.org/1999/xlink">
    <title>icon_自定义</title>
    <defs>
        <linearGradient x1="59.2873358%" y1="-64.1990215%" x2="59.2873358%" y2="113.535858%" id="linearGradient-1">
            <stop stop-color="#8A86FF" stop-opacity="0.3" offset="0%"></stop>
            <stop stop-color="#FFFFFF" offset="100%"></stop>
        </linearGradient>
    </defs>
    <g id="页面-1" stroke="none" stroke-width="1" fill="none" fill-rule="evenodd">
        <g id="生产主面板" transform="translate(-768.000000, -200.000000)" fill-rule="nonzero">
            <g id="icon_自定义" transform="translate(768.000000, 200.000000)">
                <rect id="矩形" fill="#000000" opacity="0" x="0" y="0" width="48" height="48"></rect>
                <path d="M39.8503255,23.0093277 L36.8784045,23.0093277 L36.8784045,15.0841889 C36.8784045,12.8948572 35.1051427,11.1215955 32.9158111,11.1215955 L24.9906244,11.1215955 L24.9906244,8.14967452 C24.9906244,5.41548028 22.7716009,3.19645678 20.0374066,3.19645678 C17.3032124,3.19645678 15.0841889,5.41548028 15.0841889,8.14967452 L15.0841889,11.1215955 L7.15905014,11.1215955 C4.96971848,11.1215955 3.21626733,12.8948573 3.21626733,15.0841889 L3.20633808,22.6130683 L6.16837781,22.6130683 C9.1204883,22.6130683 11.5178549,25.0104349 11.5178549,27.9625454 C11.5178549,30.9146558 9.1204883,33.3120224 6.16837781,33.3120224 L3.20638608,33.3120225 L3.19645683,40.8409019 C3.19645683,43.0302335 4.96971858,44.8034952 7.15905019,44.8034952 L14.6879296,44.8034952 L14.6879296,41.8315742 C14.6879296,38.8794637 17.0852962,36.4820971 20.0374066,36.4820971 C22.9895171,36.4820971 25.3868837,38.8794637 25.3868837,41.8315742 L25.3868837,44.8034952 L32.9157631,44.8034952 C35.1050947,44.8034952 36.8783565,43.0302335 36.8783565,40.8409019 L36.8783565,32.9158111 L39.8502775,32.9158111 C42.5844717,32.9158111 44.8034952,30.6967876 44.8034952,27.9625934 C44.8034952,25.2283991 42.5844717,23.0093277 39.8503255,23.0093277 Z" id="路径" fill="#FFFFFF"></path>
                <path d="M32.9157631,42.8034952 C35.1050947,42.8034952 36.8783565,41.0302335 36.8783565,38.8409019 L36.8783565,40.8409019 C36.8783565,43.0302335 35.1050947,44.8034952 32.9157631,44.8034952 L32.9157631,44.8034952 L25.3868837,44.8034952 L25.3868837,42.8034952 L32.9157631,42.8034952 Z M3.19845683,38.9524568 L3.19645683,38.8409019 C3.19645683,41.0302335 4.96971858,42.8034952 7.15905019,42.8034952 L14.6879296,42.8034952 L14.6879296,44.8034952 L7.15905019,44.8034952 C4.96971858,44.8034952 3.19645683,43.0302335 3.19645683,40.8409019 L3.19645683,40.8409019 L3.19845683,38.9524568 Z M3.20845683,20.6124568 L6.16837781,20.6130683 C9.1204883,20.6130683 11.5178549,23.0104349 11.5178549,25.9625454 C11.5178549,26.3044982 11.4856885,26.6390078 11.4242196,26.9632104 C10.9556078,24.487716 8.77888694,22.6130683 6.16837781,22.6130683 L6.16837781,22.6130683 L3.20633808,22.6130683 L3.20845683,20.6124568 Z M25.3868837,41.8315742 C25.3868837,38.8794637 22.9895171,36.4820971 20.0374066,36.4820971 C17.0852962,36.4820971 14.6879296,38.8794637 14.6879296,41.8315742 L14.6879296,41.8315742 L14.6879296,39.8315742 C14.6879296,36.8794637 17.0852962,34.4820971 20.0374066,34.4820971 C22.9895171,34.4820971 25.3868837,36.8794637 25.3868837,39.8315742 Z M36.8783565,30.9158111 L39.8502775,30.9158111 C42.2416393,30.9158111 44.2389224,29.2183737 44.7021923,26.9634333 C44.7686797,27.285716 44.8034952,27.6201137 44.8034952,27.9625934 C44.8034952,30.6967876 42.5844717,32.9158111 39.8502775,32.9158111 L39.8502775,32.9158111 L36.8783565,32.9158111 L36.8783565,30.9158111 Z" id="形状结合" fill="url(#linearGradient-1)"></path>
            </g>
        </g>
    </g>
</svg>