<?xml version="1.0" encoding="UTF-8"?>
<svg width="292px" height="80px"  version="1.1" xmlns="http://www.w3.org/2000/svg" xmlns:xlink="http://www.w3.org/1999/xlink">
    <title>代办数量底块</title>
    <defs>
        <path d="M19.903882,0 L271.596118,0 C274.357542,-5.07265313e-16 276.596118,2.23857625 276.596118,5 C276.596118,5.40880903 276.545981,5.81607511 276.44683,6.21267813 L262.94683,60.2126781 C262.390372,62.4385131 260.390456,64 258.096118,64 L6.40388203,64 C3.64245828,64 1.40388203,61.7614237 1.40388203,59 C1.40388203,58.591191 1.45401878,58.1839249 1.55316953,57.7873219 L15.0531695,3.78732187 C15.6096283,1.56148687 17.6095438,-1.61631859e-15 19.903882,0 Z" id="path-1"></path>
        <filter x="-4.5%" y="-15.6%" width="109.1%" height="143.8%" filterUnits="objectBoundingBox" id="filter-3">
            <feOffset dx="0" dy="4" in="SourceAlpha" result="shadowOffsetOuter1"></feOffset>
            <feGaussianBlur stdDeviation="4" in="shadowOffsetOuter1" result="shadowBlurOuter1"></feGaussianBlur>
            <feColorMatrix values="0 0 0 0 0.61344417   0 0 0 0 0.68155283   0 0 0 0 0.934527853  0 0 0 0.197934878 0" type="matrix" in="shadowBlurOuter1"></feColorMatrix>
        </filter>
    </defs>
    <g id="页面-1" stroke="none" stroke-width="1" fill="none" fill-rule="evenodd">
        <g id="动物疾病监测控制" transform="translate(-89.000000, -34.000000)">
            <g id="代办数量底块" transform="translate(96.000000, 38.000000)">
                <mask id="mask-2" fill="white">
                    <use xlink:href="#path-1"></use>
                </mask>
                <g id="蒙版" transform="translate(139.000000, 32.000000) scale(-1, 1) translate(-139.000000, -32.000000) ">
                    <use fill="black" fill-opacity="1" filter="url(#filter-3)" xlink:href="#path-1"></use>
                    <use fill="#FFFFFF" fill-rule="evenodd" xlink:href="#path-1"></use>
                </g>
                <path d="M275.44,5.76 L262,5.76 L262,0.64 C262,0.288 261.712,0 261.36,0 L256.88,0 C256.528,0 256.24,0.288 256.24,0.64 L256.24,5.76 L235.76,5.76 L235.76,0.64 C235.76,0.288 235.472,0 235.12,0 L230.64,0 C230.288,0 230,0.288 230,0.64 L230,5.76 L216.56,5.76 C215.144,5.76 214,6.904 214,8.32 L214,61.44 C214,62.856 215.144,64 216.56,64 L275.44,64 C276.856,64 278,62.856 278,61.44 L278,8.32 C278,6.904 276.856,5.76 275.44,5.76 Z M272,59 L219,59 L219,13 L229.341463,13 L229.341463,16.7808219 C229.341463,17.1273973 229.632317,17.4109589 229.987805,17.4109589 L234.512195,17.4109589 C234.867683,17.4109589 235.158537,17.1273973 235.158537,16.7808219 L235.158537,13 L255.841463,13 L255.841463,16.7808219 C255.841463,17.1273973 256.132317,17.4109589 256.487805,17.4109589 L261.012195,17.4109589 C261.367683,17.4109589 261.658537,17.1273973 261.658537,16.7808219 L261.658537,13 L272,13 L272,59 Z M260.368611,25 L256.01891,25 C255.617035,25 255.230921,25.2082666 254.994524,25.5498238 L243.103766,42.860942 L238.005476,35.4466517 C237.769079,35.1050945 237.390844,34.8968279 236.98109,34.8968279 L232.631389,34.8968279 C232.119196,34.8968279 231.81976,35.513297 232.119196,35.9548222 L242.07938,50.4501762 C242.583693,51.1832746 243.623839,51.1832746 244.128152,50.4501762 L260.880804,26.0663249 C261.18024,25.6164691 260.880804,25 260.368611,25 Z" id="形状" fill="#F7F7F7" fill-rule="nonzero" opacity="0.501919" mask="url(#mask-2)"></path>
            </g>
        </g>
    </g>
</svg>