<?xml version="1.0" encoding="UTF-8"?>
<svg width="42px" height="42px" viewBox="0 0 42 42" version="1.1" xmlns="http://www.w3.org/2000/svg" xmlns:xlink="http://www.w3.org/1999/xlink">
    <title>代办数量</title>
    <g id="页面-1" stroke="none" stroke-width="1" fill="none" fill-rule="evenodd">
        <g id="动物疾病监测控制" transform="translate(-121.000000, -49.000000)">
            <g id="代办数量" transform="translate(121.000000, 49.000000)">
                <circle id="椭圆形" fill="#DEEBFA" cx="21" cy="21" r="21"></circle>
                <circle id="椭圆形" fill="#0066FF" cx="21" cy="21" r="17"></circle>
                <path d="M18.1875,12 C18.290625,12 18.375,12.084375 18.375,12.1875 L18.375,12.1875 L18.375,13.6875 L24.375,13.6875 L24.375,12.1875 C24.375,12.084375 24.459375,12 24.5625,12 L24.5625,12 L25.875,12 C25.978125,12 26.0625,12.084375 26.0625,12.1875 L26.0625,12.1875 L26.0625,13.6875 L30,13.6875 C30.4148437,13.6875 30.75,14.0226563 30.75,14.4375 L30.75,14.4375 L30.75,30 C30.75,30.4148437 30.4148437,30.75 30,30.75 L30,30.75 L12.75,30.75 C12.3351563,30.75 12,30.4148437 12,30 L12,30 L12,14.4375 C12,14.0226563 12.3351563,13.6875 12.75,13.6875 L12.75,13.6875 L16.6875,13.6875 L16.6875,12.1875 C16.6875,12.084375 16.771875,12 16.875,12 L16.875,12 Z M25.5,19.21875 L24.20625,19.21875 C24.0867187,19.21875 23.971875,19.2773438 23.9015625,19.3734375 L20.3648437,24.24375 L18.8484375,22.1578125 C18.778125,22.0617187 18.665625,22.003125 18.54375,22.003125 L17.25,22.003125 C17.0976562,22.003125 17.0085938,22.1765625 17.0976562,22.3007812 L20.0601562,26.3789062 C20.2101563,26.5851563 20.5195312,26.5851563 20.6695312,26.3789062 L25.6523438,19.51875 C25.7414062,19.3921875 25.6523438,19.21875 25.5,19.21875 Z" id="形状" fill="#FFFFFF" fill-rule="nonzero"></path>
            </g>
        </g>
    </g>
</svg>