<?xml version="1.0" encoding="UTF-8"?>
<svg width="42px" height="42px" viewBox="0 0 42 42" version="1.1" xmlns="http://www.w3.org/2000/svg" xmlns:xlink="http://www.w3.org/1999/xlink">
    <title>待检验数量</title>
    <g id="页面-1" stroke="none" stroke-width="1" fill="none" fill-rule="evenodd">
        <g id="动物疾病监测控制" transform="translate(-1214.000000, -49.000000)">
            <g id="待检验数量" transform="translate(1214.000000, 49.000000)">
                <circle id="椭圆形" fill="#FEF2DE" cx="21" cy="21" r="21"></circle>
                <circle id="椭圆形" fill="#FAA700" cx="21" cy="21" r="17"></circle>
                <path d="M26.390625,16.453125 L26.390625,13.3125 L28.40625,13.3125 C28.509375,13.3125 28.59375,13.228125 28.59375,13.125 L28.59375,11.8125 C28.59375,11.709375 28.509375,11.625 28.40625,11.625 L13.59375,11.625 C13.490625,11.625 13.40625,11.709375 13.40625,11.8125 L13.40625,13.125 C13.40625,13.228125 13.490625,13.3125 13.59375,13.3125 L15.609375,13.3125 L15.609375,16.453125 C15.609375,18.3632812 16.603125,20.04375 18.103125,21 C16.603125,21.95625 15.609375,23.6367188 15.609375,25.546875 L15.609375,28.6875 L13.59375,28.6875 C13.490625,28.6875 13.40625,28.771875 13.40625,28.875 L13.40625,30.1875 C13.40625,30.290625 13.490625,30.375 13.59375,30.375 L28.40625,30.375 C28.509375,30.375 28.59375,30.290625 28.59375,30.1875 L28.59375,28.875 C28.59375,28.771875 28.509375,28.6875 28.40625,28.6875 L26.390625,28.6875 L26.390625,25.546875 C26.390625,23.6367188 25.396875,21.95625 23.896875,21 C25.396875,20.04375 26.390625,18.3632812 26.390625,16.453125 Z M24.703125,25.546875 L24.703125,28.6875 L17.296875,28.6875 L17.296875,25.546875 C17.296875,24.5578125 17.68125,23.6273438 18.3820313,22.9289062 C19.0804688,22.228125 20.0109375,21.84375 21,21.84375 C21.9890625,21.84375 22.9195312,22.228125 23.6179688,22.9289062 C24.31875,23.6273438 24.703125,24.5578125 24.703125,25.546875 Z" id="形状" fill="#FFFFFF" fill-rule="nonzero"></path>
            </g>
        </g>
    </g>
</svg>