<?xml version="1.0" encoding="UTF-8"?>
<svg width="372px" height="81px" version="1.1" xmlns="http://www.w3.org/2000/svg" xmlns:xlink="http://www.w3.org/1999/xlink">
    <title>待检验数量底块</title>
    <defs>
        <path d="M6.40388203,0 L338.096118,0 C340.390456,1.02366779e-14 342.390372,1.56148687 342.94683,3.78732187 L356.44683,57.7873219 C357.116574,60.4662964 355.487771,63.1809689 352.808796,63.8507125 C352.412193,63.9498633 352.004927,64 351.596118,64 L19.903882,64 C17.6095438,64 15.6096283,62.4385131 15.0531695,60.2126781 L1.55316953,6.21267813 C0.883425896,3.53370359 2.51222937,0.819031134 5.19120391,0.149287499 C5.58780693,0.0501367445 5.995073,3.62781068e-15 6.40388203,0 Z" id="path-1"></path>
        <filter x="-3.5%" y="-15.6%" width="107.0%" height="143.8%" filterUnits="objectBoundingBox" id="filter-3">
            <feOffset dx="0" dy="4" in="SourceAlpha" result="shadowOffsetOuter1"></feOffset>
            <feGaussianBlur stdDeviation="4" in="shadowOffsetOuter1" result="shadowBlurOuter1"></feGaussianBlur>
            <feColorMatrix values="0 0 0 0 0.61344417   0 0 0 0 0.68155283   0 0 0 0 0.934527853  0 0 0 0.197934878 0" type="matrix" in="shadowBlurOuter1"></feColorMatrix>
        </filter>
    </defs>
    <g id="页面-1" stroke="none" stroke-width="1" fill="none" fill-rule="evenodd">
        <g id="动物疾病监测控制" transform="translate(-1182.000000, -33.000000)">
            <g id="待检验数量底块" transform="translate(1189.000000, 37.625000)">
                <mask id="mask-2" fill="white">
                    <use xlink:href="#path-1"></use>
                </mask>
                <g id="蒙版" transform="translate(179.000000, 32.000000) scale(-1, 1) translate(-179.000000, -32.000000) ">
                    <use fill="black" fill-opacity="1" filter="url(#filter-3)" xlink:href="#path-1"></use>
                    <use fill="#FFFFFF" fill-rule="evenodd" xlink:href="#path-1"></use>
                </g>
                <path d="M349.601852,16.855 L349.601852,6.135 L356.37037,6.135 C356.716667,6.135 357,5.847 357,5.495 L357,1.015 C357,0.663 356.716667,0.375 356.37037,0.375 L306.62963,0.375 C306.283333,0.375 306,0.663 306,1.015 L306,5.495 C306,5.847 306.283333,6.135 306.62963,6.135 L313.398148,6.135 L313.398148,16.855 C313.398148,23.375 316.735185,29.111 321.772222,32.375 C316.735185,35.639 313.398148,41.375 313.398148,47.895 L313.398148,58.615 L306.62963,58.615 C306.283333,58.615 306,58.903 306,59.255 L306,63.735 C306,64.087 306.283333,64.375 306.62963,64.375 L356.37037,64.375 C356.716667,64.375 357,64.087 357,63.735 L357,59.255 C357,58.903 356.716667,58.615 356.37037,58.615 L349.601852,58.615 L349.601852,47.895 C349.601852,41.375 346.264815,35.639 341.227778,32.375 C346.264815,29.111 349.601852,23.375 349.601852,16.855 Z M344,47.8202055 L344,58.375 L319,58.375 L319,47.8202055 C319,44.4962329 320.297468,41.3691781 322.662975,39.0219178 C325.02057,36.6667808 328.161392,35.375 331.5,35.375 C334.838608,35.375 337.97943,36.6667808 340.337025,39.0219178 C342.702532,41.3691781 344,44.4962329 344,47.8202055 Z M344,16.9297945 C344,20.2537671 342.702532,23.3808219 340.337025,25.7280822 C337.97943,28.0832192 334.838608,29.375 331.5,29.375 C328.161392,29.375 325.02057,28.0832192 322.662975,25.7280822 C320.297468,23.3808219 319,20.2537671 319,16.9297945 L319,6.375 L344,6.375 L344,16.9297945 Z" id="形状" fill="#F7F7F7" fill-rule="nonzero" opacity="0.501919" mask="url(#mask-2)"></path>
            </g>
        </g>
    </g>
</svg>