<?xml version="1.0" encoding="UTF-8"?>
<svg width="42px" height="42px" viewBox="0 0 42 42" version="1.1" xmlns="http://www.w3.org/2000/svg" xmlns:xlink="http://www.w3.org/1999/xlink">
    <title>更多</title>
    <g id="页面-1" stroke="none" stroke-width="1" fill="none" fill-rule="evenodd">
        <g id="动物疾病监测控制" transform="translate(-35.000000, -49.000000)">
            <g id="更多" transform="translate(35.000000, 49.000000)">
                <circle id="椭圆形" fill="#DFDEFD" cx="21" cy="21" r="21"></circle>
                <circle id="椭圆形" fill="#7B78FE" cx="21" cy="21" r="17"></circle>
                <path d="M28.46875,14 L13.15625,14 C13.0703125,14 13,14.0703125 13,14.15625 L13,15.40625 C13,15.4921875 13.0703125,15.5625 13.15625,15.5625 L28.46875,15.5625 C28.5546875,15.5625 28.625,15.4921875 28.625,15.40625 L28.625,14.15625 C28.625,14.0703125 28.5546875,14 28.46875,14 Z M28.46875,26.1875 L13.15625,26.1875 C13.0703125,26.1875 13,26.2578125 13,26.34375 L13,27.59375 C13,27.6796875 13.0703125,27.75 13.15625,27.75 L28.46875,27.75 C28.5546875,27.75 28.625,27.6796875 28.625,27.59375 L28.625,26.34375 C28.625,26.2578125 28.5546875,26.1875 28.46875,26.1875 Z M28.46875,20.09375 L13.15625,20.09375 C13.0703125,20.09375 13,20.1640625 13,20.25 L13,21.5 C13,21.5859375 13.0703125,21.65625 13.15625,21.65625 L28.46875,21.65625 C28.5546875,21.65625 28.625,21.5859375 28.625,21.5 L28.625,20.25 C28.625,20.1640625 28.5546875,20.09375 28.46875,20.09375 Z" id="形状" fill="#FFFFFF" fill-rule="nonzero"></path>
            </g>
        </g>
    </g>
</svg>