<?xml version="1.0" encoding="UTF-8"?>
<svg width="70px" height="70px" viewBox="0 0 70 70" version="1.1" xmlns="http://www.w3.org/2000/svg" xmlns:xlink="http://www.w3.org/1999/xlink">
    <title>我的待办</title>
    <defs>
        <filter x="-31.6%" y="-31.6%" width="163.2%" height="163.2%" filterUnits="objectBoundingBox" id="filter-1">
            <feOffset dx="0" dy="2" in="SourceAlpha" result="shadowOffsetOuter1"></feOffset>
            <feGaussianBlur stdDeviation="2" in="shadowOffsetOuter1" result="shadowBlurOuter1"></feGaussianBlur>
            <feColorMatrix values="0 0 0 0 0.327229678   0 0 0 0 0.499864715   0 0 0 0 0.84513479  0 0 0 1 0" type="matrix" in="shadowBlurOuter1" result="shadowMatrixOuter1"></feColorMatrix>
            <feMerge>
                <feMergeNode in="shadowMatrixOuter1"></feMergeNode>
                <feMergeNode in="SourceGraphic"></feMergeNode>
            </feMerge>
        </filter>
    </defs>
    <g id="页面-1" stroke="none" stroke-width="1" fill="none" fill-rule="evenodd">
        <g id="广西质检首页" transform="translate(-53.000000, -150.000000)">
            <g id="我的待办" transform="translate(53.000000, 150.000000)">
                <circle id="椭圆形" fill="#73A0FA" cx="35" cy="35" r="35"></circle>
                <g id="编组-22" filter="url(#filter-1)" transform="translate(16.000000, 16.000000)">
                    <rect id="矩形" x="0" y="0" width="38" height="38"></rect>
                    <g id="更改日志" transform="translate(3.800000, 0.000000)" fill="#FFFFFF" fill-rule="nonzero">
                        <path d="M28.5,0 C29.549341,0 30.4,0.850658975 30.4,1.9 L30.4,36.1 C30.4,37.149341 29.549341,38 28.5,38 L5.7,38 L5.7,0 L28.5,0 Z M3.8,0 L3.8,38 L1.9,38 C0.850658975,38 0,37.149341 0,36.1 L0,1.9 C0,0.850658975 0.850658975,0 1.9,0 L3.8,0 Z M22.6117203,20.8392386 L16.6178465,29.3993774 C16.5459058,29.5021194 16.4950222,29.6180901 16.4681316,29.7405982 L16.4681316,29.7405982 L15.9385718,32.1531625 C15.8848485,32.3979142 15.9299998,32.6539796 16.0641931,32.8655967 C16.3451721,33.3086881 16.9321471,33.4401062 17.3752385,33.1591273 L17.3752385,33.1591273 L19.4611872,31.8363583 C19.56711,31.769189 19.6586836,31.6817098 19.7306243,31.5789679 L19.7306243,31.5789679 L25.724498,23.0188291 L22.6117203,20.8392386 Z M26.5656586,18.5049783 C25.7060888,17.903101 24.5213518,18.112002 23.9194745,18.9715719 L23.9194745,18.9715719 L23.2655974,19.9054053 L26.3783752,22.0849957 L27.0322523,21.1511624 C27.6341296,20.2915925 27.4252285,19.1068555 26.5656586,18.5049783 Z M17.1,19 L10.45,19 C9.92532954,19 9.5,19.4253295 9.5,19.95 C9.5,20.437194 9.86673822,20.8387318 10.3392099,20.8936087 L10.45,20.9 L17.1,20.9 C17.6246705,20.9 18.05,20.4746705 18.05,19.95 C18.05,19.4253295 17.6246705,19 17.1,19 Z M23.75,12.35 L10.45,12.35 C9.92532954,12.35 9.5,12.7753295 9.5,13.3 C9.5,13.787194 9.86673822,14.1887318 10.3392099,14.2436087 L10.45,14.25 L23.75,14.25 C24.2746705,14.25 24.7,13.8246705 24.7,13.3 C24.7,12.7753295 24.2746705,12.35 23.75,12.35 Z M23.75,5.7 L10.45,5.7 C9.92532954,5.7 9.5,6.12532949 9.5,6.65 C9.5,7.13719405 9.86673822,7.5387318 10.3392099,7.59360866 L10.45,7.6 L23.75,7.6 C24.2746705,7.6 24.7,7.17467051 24.7,6.65 C24.7,6.12532949 24.2746705,5.7 23.75,5.7 Z" id="形状结合"></path>
                    </g>
                </g>
            </g>
        </g>
    </g>
</svg>