<?xml version="1.0" encoding="UTF-8"?>
<svg width="135px" height="264px" viewBox="0 0 135 264" version="1.1" xmlns="http://www.w3.org/2000/svg" xmlns:xlink="http://www.w3.org/1999/xlink">
    <title>手机线框</title>
    <g id="页面-1" stroke="none" stroke-width="1" fill="none" fill-rule="evenodd">
        <g id="动物疾病监测控制" transform="translate(-48.000000, -135.000000)">
            <g id="手机线框" transform="translate(49.000000, 136.000000)">
                <g id="button" transform="translate(127.000000, 61.000000)" fill="#FFFFFF" fill-rule="nonzero" stroke="#EFF0F1">
                    <path d="M3.08029872,0.144444444 C3.99220872,0.144444444 4.32679372,0.250005989 4.66122205,0.471785156 C4.97423816,0.6793646 5.21989483,0.983979004 5.38729761,1.37211884 C5.56615205,1.78680991 5.65128205,2.20169503 5.65128205,3.33246405 L5.65128205,3.33246405 L5.65128205,27.2675359 C5.65128205,28.398305 5.56615205,28.8131901 5.38729761,29.2278812 C5.21989483,29.616021 4.97423816,29.9206354 4.66122205,30.1282148 C4.32679372,30.349994 3.99220872,30.4555556 3.08029872,30.4555556 L3.08029872,30.4555556 L0.651282051,30.4555556 L0.651282051,0.144444444 L3.08029872,0.144444444 Z" id="lock"></path>
                </g>
                <path d="M100.959741,0 C111.102528,0 114.790319,1.03116533 118.500992,3.01500696 C122.158077,4.97019881 125.028178,7.83936336 126.984008,11.4952543 C128.968498,15.2047156 130,18.8913019 130,29.0307777 L130,29.0307777 L130,232.969222 C130,243.108698 128.968498,246.795285 126.984008,250.504746 C125.028178,254.160637 122.158077,257.029801 118.500992,258.984993 C114.790319,260.968835 111.102528,262 100.959741,262 L100.959741,262 L29.0402583,262 C18.8974712,262 15.209681,260.968835 11.4990083,258.984993 C7.84192347,257.029801 4.97182191,254.160637 3.01599157,250.504746 C1.03150207,246.795285 0,243.108698 0,232.969222 L0,232.969222 L0,29.0307777 C0,18.8913019 1.03150207,15.2047156 3.01599157,11.4952543 C4.97182191,7.83936336 7.84192347,4.97019881 11.4990083,3.01500696 C11.5520316,2.98665906 11.6050502,2.95850567 11.6580829,2.93054704 L11.9766014,2.76513403 C15.4855077,0.971337945 19.2210281,0.0278586963 28.6190396,0 L28.6190396,0 L100.959741,0 Z" id="body" stroke="#E3E6E8" stroke-width="2" fill="#FFFFFF" fill-rule="nonzero"></path>
                <g id="编组-18" opacity="0.756068638" transform="translate(3.000000, 4.000000)">
                    <path d="M98.4501936,0 C107.356893,0 110.591572,0.910209969 113.849042,2.64308918 C117.079662,4.36168522 119.615072,6.88365505 121.342826,10.0971502 C123.084939,13.3373526 124,16.554886 124,25.4143729 L124,25.4143729 L124,229.586273 C124,238.44576 123.084939,241.663293 121.342826,244.903495 C119.615072,248.116991 117.079662,250.638961 113.849042,252.357557 C110.642382,254.063407 107.45788,254.972071 98.861767,255 L98.861767,255 L25.142735,255 C16.5435734,254.972445 13.3583128,254.063776 10.1509582,252.357557 C6.92033822,250.638961 4.38492875,248.116991 2.65717427,244.903495 C0.915060501,241.663293 0,238.44576 0,229.586273 L0,25.0094589 C0.0283514575,16.4558796 0.941862251,13.2875033 2.65717427,10.0971502 C4.38492875,6.88365505 6.92033822,4.36168522 10.1509582,2.64308918 C13.4084277,0.910209969 16.6431074,0 25.5498067,0 L25.5498067,0 L98.4501936,0 Z" id="body-inner" stroke="#E0E0E0"></path>
                    <path d="M63.2929037,6 C63.4881626,6 63.6649367,6.05596442 63.7928964,6.14644659 C63.9208554,6.2369288 64,6.3619288 64,6.5 C64,6.6380712 63.9208554,6.7630712 63.7928964,6.85355341 C63.6649367,6.94403558 63.4881626,7 63.2929037,7 L63.2929037,7 L51.7070963,7 C51.511837,7 51.335063,6.94403558 51.2071037,6.85355341 C51.0791445,6.7630712 51,6.6380712 51,6.5 C51,6.3619288 51.0791445,6.2369288 51.2071037,6.14644659 C51.335063,6.05596442 51.511837,6 51.7070963,6 L51.7070963,6 L63.2929037,6 Z" id="earpiece" stroke="#E2E2E2" stroke-width="0.829999983"></path>
                    <circle id="facetime-camera" stroke="#E2E2E2" cx="71" cy="5" r="2"></circle>
                    <g id="display" transform="translate(6.000000, 4.000000)" stroke="#E0E0E0">
                        <path d="M20.604746,0.347028724 C21.4580662,0.347028724 22.2613008,0.621261276 22.9134963,1.0962109 C23.5656919,1.57116069 24.0668482,2.24682687 24.3160115,3.04969132 C24.9674583,5.1488118 25.9133138,6.71725236 27.1381417,7.76586494 C28.3831934,8.83179172 29.9186428,9.36969165 31.7484663,9.36969165 L31.7484663,9.36969165 L81.1349693,9.36969165 C82.9647929,9.36969165 84.5002418,8.83179179 85.7452939,7.76586515 C86.9701215,6.71725269 87.9159768,5.14881232 88.5674243,3.04969203 C88.8165869,2.24682798 89.3177428,1.57116218 89.9699382,1.09621238 C90.6221335,0.621262531 91.4253676,0.347028724 92.278688,0.347028724 L92.278688,0.347028724 L101.947853,0.347028724 C105.454692,0.347028724 108.629538,1.74534619 110.927675,4.00611964 C113.225812,6.2668931 114.647239,9.39012257 114.647239,12.8399466 L114.647239,12.8399466 L114.647239,230.656052 C114.647239,234.521196 113.054688,238.020428 110.479881,240.553373 C107.905074,243.086318 104.348011,244.652978 100.418988,244.652978 L100.418988,244.652978 L14.5810123,244.652978 C10.6519892,244.652978 7.09492627,243.086318 4.52011914,240.553373 C1.94531204,238.020428 0.352760736,234.521196 0.352760736,230.656052 L0.352760736,230.656052 L0.352760736,11.7988701 C0.352760736,8.63653144 1.65573572,5.77357108 3.76236124,3.7011954 C5.86898677,1.62881973 8.77926283,0.347028724 11.993865,0.347028724 L11.993865,0.347028724 L20.604746,0.347028724 Z" id="路径"></path>
                    </g>
                </g>
            </g>
        </g>
    </g>
</svg>