<?xml version="1.0" encoding="UTF-8"?>
<svg width="42px" height="43px" viewBox="0 0 42 43" version="1.1" xmlns="http://www.w3.org/2000/svg" xmlns:xlink="http://www.w3.org/1999/xlink">
    <title>已检数量</title>
    <g id="页面-1" stroke="none" stroke-width="1" fill="none" fill-rule="evenodd">
        <g id="动物疾病监测控制" transform="translate(-399.000000, -49.000000)">
            <g id="已检数量" transform="translate(399.000000, 49.159091)">
                <circle id="椭圆形" fill="#E7FADF" cx="21" cy="21" r="21"></circle>
                <circle id="椭圆形" fill="#7FD620" cx="21" cy="21" r="17"></circle>
                <path d="M20.971875,10 C21.1007812,10 21.2296875,10.0164063 21.3257812,10.0492188 L21.3257812,10.0492188 L29.2898437,12.7632813 C29.484375,12.83125 29.64375,13.0539063 29.6391633,13.2601562 L29.6391633,13.2601562 L29.6391633,24.5664062 C29.6391633,24.775 29.5054687,25.046875 29.34375,25.1734375 L29.34375,25.1734375 L21.2648437,31.46875 C21.1851562,31.5320312 21.0773437,31.5648437 20.9695312,31.5648437 C20.8617187,31.5648437 20.75625,31.5320312 20.6742187,31.46875 L20.6742187,31.46875 L12.5953125,25.1734375 C12.4335937,25.0445312 12.3,24.7726562 12.3,24.5664062 L12.3,24.5664062 L12.3,13.2601562 C12.3,13.0539063 12.459375,12.8289063 12.6539062,12.7632813 L12.6539062,12.7632813 L20.6179687,10.0492188 C20.7140625,10.0164063 20.8429687,10 20.971875,10 Z M25.096875,16.46875 L23.803125,16.46875 C23.6835937,16.46875 23.56875,16.5273437 23.4984375,16.6234375 L19.9617187,21.49375 L18.4453125,19.4054687 C18.375,19.309375 18.2625,19.2507812 18.140625,19.2507812 L16.846875,19.2507812 C16.6945312,19.2507812 16.6054687,19.4242187 16.6945312,19.5484375 L19.6570312,23.6265625 C19.8070312,23.8328125 20.1164062,23.8328125 20.2664062,23.6265625 L25.2492187,16.7664062 C25.3382812,16.6421875 25.2492187,16.46875 25.096875,16.46875 Z" id="形状" fill="#FFFFFF" fill-rule="nonzero"></path>
            </g>
        </g>
    </g>
</svg>