<?xml version="1.0" encoding="UTF-8"?>
<svg width="42px" height="42px" version="1.1" xmlns="http://www.w3.org/2000/svg" xmlns:xlink="http://www.w3.org/1999/xlink">
    <title>退出</title>
    <g id="页面-1" stroke="none" stroke-width="1" fill="none" fill-rule="evenodd">
        <g id="动物疾病监测控制" transform="translate(-1845.000000, -49.000000)">
            <g id="退出" transform="translate(1845.000000, 49.000000)">
                <circle id="椭圆形" fill="#DFDEFD" cx="21" cy="21" r="21"></circle>
                <circle id="椭圆形" fill="#7B78FE" cx="21" cy="21" r="17"></circle>
                <g id="logout" transform="translate(9.000000, 9.000000)" fill-rule="nonzero">
                    <rect id="矩形" fill="#000000" opacity="0" x="0" y="0" width="24" height="24"></rect>
                    <path d="M20.34375,17.15625 L18.6960937,17.15625 C18.5835937,17.15625 18.478125,17.2054687 18.4078125,17.2921875 C18.24375,17.4914062 18.0679687,17.6835938 17.8828125,17.8664062 C17.11875,18.628125 16.2304688,19.228125 15.2414063,19.6453125 C14.2195312,20.0765625 13.1320312,20.296875 12.009375,20.296875 C10.8867188,20.296875 9.79921875,20.0765625 8.77734375,19.6453125 C7.78828125,19.228125 6.9,18.628125 6.1359375,17.8664062 C5.371875,17.1046875 4.77421875,16.2164062 4.3546875,15.2296875 C3.92109375,14.2078125 3.703125,13.1226562 3.703125,12 C3.703125,10.8773437 3.9234375,9.7921875 4.3546875,8.7703125 C4.771875,7.78359375 5.371875,6.8953125 6.1359375,6.13359375 C6.9,5.371875 7.78828125,4.771875 8.77734375,4.3546875 C9.79921875,3.9234375 10.8867188,3.703125 12.009375,3.703125 C13.1320312,3.703125 14.2195312,3.92109375 15.2414062,4.3546875 C16.2304687,4.771875 17.11875,5.371875 17.8828125,6.13359375 C18.0679687,6.31875 18.2414062,6.5109375 18.4078125,6.7078125 C18.478125,6.79453125 18.5859375,6.84375 18.6960937,6.84375 L20.34375,6.84375 C20.4914062,6.84375 20.5828125,6.6796875 20.5007812,6.55546875 C18.703125,3.76171875 15.5578125,1.9125 11.9835937,1.92183952 C6.36796875,1.9359375 1.865625,6.49453125 1.921875,12.103125 C1.978125,17.6226562 6.4734375,22.078125 12.009375,22.078125 C15.5742187,22.078125 18.7054687,20.23125 20.5007812,17.4445312 C20.5804688,17.3203125 20.4914063,17.15625 20.34375,17.15625 Z M22.4273437,11.8523437 L19.1015625,9.22734375 C18.9773437,9.12890625 18.796875,9.21796875 18.796875,9.375 L18.796875,11.15625 L11.4375,11.15625 C11.334375,11.15625 11.25,11.240625 11.25,11.34375 L11.25,12.65625 C11.25,12.759375 11.334375,12.84375 11.4375,12.84375 L18.796875,12.84375 L18.796875,14.625 C18.796875,14.7820312 18.9796875,14.8710937 19.1015625,14.7726562 L22.4273437,12.1476562 C22.5234375,12.0726562 22.5234375,11.9273437 22.4273437,11.8523437 L22.4273437,11.8523437 Z" id="形状" fill="#FEFEFE"></path>
                </g>
            </g>
        </g>
    </g>
</svg>