<?xml version="1.0" encoding="UTF-8"?>
<svg width="292px" height="80px" version="1.1" xmlns="http://www.w3.org/2000/svg" xmlns:xlink="http://www.w3.org/1999/xlink">
    <title>系统提醒底块</title>
    <defs>
        <path d="M18.5,0 L270.192236,0 C272.95366,-5.07265313e-16 275.192236,2.23857625 275.192236,5 C275.192236,5.40880903 275.142099,5.81607511 275.042948,6.21267813 L261.542948,60.2126781 C260.98649,62.4385131 258.986574,64 256.692236,64 L5,64 C2.23857625,64 7.14983628e-14,61.7614237 7.10542736e-14,59 C7.10542736e-14,58.591191 0.0501367445,58.1839249 0.149287499,57.7873219 L13.6492875,3.78732187 C14.2057463,1.56148687 16.2056618,-1.61631859e-15 18.5,0 Z" id="path-1"></path>
        <filter x="-5.1%" y="-15.6%" width="110.2%" height="143.8%" filterUnits="objectBoundingBox" id="filter-3">
            <feOffset dx="0" dy="4" in="SourceAlpha" result="shadowOffsetOuter1"></feOffset>
            <feGaussianBlur stdDeviation="4" in="shadowOffsetOuter1" result="shadowBlurOuter1"></feGaussianBlur>
            <feColorMatrix values="0 0 0 0 0.61344417   0 0 0 0 0.68155283   0 0 0 0 0.934527853  0 0 0 0.197934878 0" type="matrix" in="shadowBlurOuter1"></feColorMatrix>
        </filter>
    </defs>
    <g id="页面-1" stroke="none" stroke-width="1" fill="none" fill-rule="evenodd">
        <g id="动物疾病监测控制" transform="translate(-1540.000000, -34.000000)">
            <g id="系统提醒底块" transform="translate(1548.000000, 38.000000)">
                <mask id="mask-2" fill="white">
                    <use xlink:href="#path-1"></use>
                </mask>
                <g id="蒙版-2">
                    <use fill="black" fill-opacity="1" filter="url(#filter-3)" xlink:href="#path-1"></use>
                    <use fill="#FFFFFF" fill-rule="evenodd" xlink:href="#path-1"></use>
                </g>
                <path d="M273.714286,50.6181818 L272,50.6181818 L272,25.8909091 C272,15.6290909 264.55,7.14909091 254.857143,5.73818182 L254.857143,2.90909091 C254.857143,1.30181818 253.578571,0 252,0 C250.421429,0 249.142857,1.30181818 249.142857,2.90909091 L249.142857,5.73818182 C239.45,7.14909091 232,15.6290909 232,25.8909091 L232,50.6181818 L230.285714,50.6181818 C229.021429,50.6181818 228,51.6581818 228,52.9454545 L228,55.2727273 C228,55.5927273 228.257143,55.8545455 228.571429,55.8545455 L244,55.8545455 C244,60.3490909 247.585714,64 252,64 C256.414286,64 260,60.3490909 260,55.8545455 L275.428571,55.8545455 C275.742857,55.8545455 276,55.5927273 276,55.2727273 L276,52.9454545 C276,51.6581818 274.978571,50.6181818 273.714286,50.6181818 Z M253,59 C251.34375,59 250,57.65625 250,56 L256,56 C256,57.65625 254.65625,59 253,59 Z M238,52 L238,26.5620438 C238,22.4021898 239.505769,18.4967153 242.245433,15.5563869 C244.985096,12.6160584 248.624038,11 252.5,11 C256.375962,11 260.014904,12.6160584 262.754567,15.5563869 C265.494231,18.4967153 267,22.4021898 267,26.5620438 L267,52 L238,52 Z" id="形状" fill="#F7F7F7" fill-rule="nonzero" opacity="0.501919" mask="url(#mask-2)"></path>
            </g>
        </g>
    </g>
</svg>