<?xml version="1.0" encoding="UTF-8"?>
<svg width="42px" height="42px" version="1.1" xmlns="http://www.w3.org/2000/svg" xmlns:xlink="http://www.w3.org/1999/xlink">
    <title>系统提醒</title>
    <g id="页面-1" stroke="none" stroke-width="1" fill="none" fill-rule="evenodd">
        <g id="动物疾病监测控制" transform="translate(-1572.000000, -49.000000)">
            <g id="系统提醒" transform="translate(1572.000000, 49.000000)">
                <circle id="椭圆形" fill="#F8E8EB" cx="21" cy="21" r="21"></circle>
                <circle id="椭圆形" fill="#F42850" cx="21" cy="21" r="17"></circle>
                <path d="M28.125,26 L27.5625,26 L27.5625,18.03125 C27.5625,14.7242187 25.1179688,11.9914063 21.9375,11.5367187 L21.9375,10.625 C21.9375,10.1070313 21.5179688,9.6875 21,9.6875 C20.4820312,9.6875 20.0625,10.1070313 20.0625,10.625 L20.0625,11.5367188 C16.8820313,11.9914063 14.4375,14.7242187 14.4375,18.03125 L14.4375,26 L13.875,26 C13.4601563,26 13.125,26.3351563 13.125,26.75 L13.125,27.5 C13.125,27.603125 13.209375,27.6875 13.3125,27.6875 L18.375,27.6875 C18.375,29.1359375 19.5515625,30.3125 21,30.3125 C22.4484375,30.3125 23.625,29.1359375 23.625,27.6875 L28.6875,27.6875 C28.790625,27.6875 28.875,27.603125 28.875,27.5 L28.875,26.75 C28.875,26.3351563 28.5398438,26 28.125,26 Z M21,28.8125 C20.3789062,28.8125 19.875,28.3085938 19.875,27.6875 L22.125,27.6875 C22.125,28.3085938 21.6210938,28.8125 21,28.8125 Z" id="形状" fill="#FFFFFF" fill-rule="nonzero"></path>
            </g>
        </g>
    </g>
</svg>