<?xml version="1.0" encoding="UTF-8"?>
<svg width="372px" height="81px" version="1.1" xmlns="http://www.w3.org/2000/svg" xmlns:xlink="http://www.w3.org/1999/xlink">
    <title>已检数量底块</title>
    <defs>
        <path d="M6.40388203,0 L338.096118,0 C340.390456,1.02366779e-14 342.390372,1.56148687 342.94683,3.78732187 L356.44683,57.7873219 C357.116574,60.4662964 355.487771,63.1809689 352.808796,63.8507125 C352.412193,63.9498633 352.004927,64 351.596118,64 L19.903882,64 C17.6095438,64 15.6096283,62.4385131 15.0531695,60.2126781 L1.55316953,6.21267813 C0.883425896,3.53370359 2.51222937,0.819031134 5.19120391,0.149287499 C5.58780693,0.0501367445 5.995073,3.62781068e-15 6.40388203,0 Z" id="path-1"></path>
        <filter x="-3.5%" y="-15.6%" width="107.0%" height="143.8%" filterUnits="objectBoundingBox" id="filter-3">
            <feOffset dx="0" dy="4" in="SourceAlpha" result="shadowOffsetOuter1"></feOffset>
            <feGaussianBlur stdDeviation="4" in="shadowOffsetOuter1" result="shadowBlurOuter1"></feGaussianBlur>
            <feColorMatrix values="0 0 0 0 0.61344417   0 0 0 0 0.68155283   0 0 0 0 0.934527853  0 0 0 0.197934878 0" type="matrix" in="shadowBlurOuter1"></feColorMatrix>
        </filter>
    </defs>
    <g id="页面-1" stroke="none" stroke-width="1" fill="none" fill-rule="evenodd">
        <g id="动物疾病监测控制" transform="translate(-367.000000, -34.000000)">
            <g id="已检数量底块" transform="translate(374.000000, 38.159091)">
                <mask id="mask-2" fill="white">
                    <use xlink:href="#path-1"></use>
                </mask>
                <g id="蒙版">
                    <use fill="black" fill-opacity="1" filter="url(#filter-3)" xlink:href="#path-1"></use>
                    <use fill="#FFFFFF" fill-rule="evenodd" xlink:href="#path-1"></use>
                </g>
                <path d="M356.97254,8.04175682 L333.547696,-0.0130198299 C333.265054,-0.110400549 332.8859,-0.159090909 332.506745,-0.159090909 C332.127591,-0.159090909 331.748437,-0.110400549 331.465794,-0.0130198299 L308.040951,8.04175682 C307.468773,8.23651826 307,8.90427177 307,9.51637915 L307,43.0709928 C307,43.6831002 307.392942,44.489969 307.868608,44.8725361 L331.631244,63.5557227 C331.872524,63.7435284 332.182741,63.8409091 332.499852,63.8409091 C332.816963,63.8409091 333.134073,63.7435284 333.36846,63.5557227 L357.131095,44.8725361 C357.606762,44.4969247 358,43.6900559 358,43.0709928 L358,9.51637915 C358.013491,8.90427177 357.544718,8.24347403 356.97254,8.04175682 Z M353,41.6777885 L332.5,57.8409091 L312,41.6777885 L312,11.9131444 L332.5,4.84090909 L353,11.9131444 L353,41.6777885 Z M325.177134,27.6761655 C324.973344,27.3870629 324.64728,27.2107809 324.294043,27.2107809 L320.544301,27.2107809 C320.102756,27.2107809 319.844621,27.7325758 320.102756,28.1062937 L328.689121,40.3755245 C329.123874,40.9960373 330.020551,40.9960373 330.455304,40.3755245 L344.897244,19.7364219 C345.155379,19.362704 344.897244,18.8409091 344.455699,18.8409091 L340.705957,18.8409091 C340.359513,18.8409091 340.026656,19.0171911 339.822866,19.3062937 L329.572212,33.9588578 L325.177134,27.6761655 Z" id="形状" fill="#F7F7F7" fill-rule="nonzero" opacity="0.49546596" mask="url(#mask-2)"></path>
            </g>
        </g>
    </g>
</svg>