<?xml version="1.0" encoding="UTF-8"?>
<svg width="240px" height="164px" viewBox="0 0 240 164" version="1.1" xmlns="http://www.w3.org/2000/svg" xmlns:xlink="http://www.w3.org/1999/xlink">
    <title>其他</title>
    <defs>
        <filter x="-19.8%" y="-28.8%" width="139.6%" height="157.7%" filterUnits="objectBoundingBox" id="filter-1">
            <feGaussianBlur stdDeviation="10" in="SourceGraphic"></feGaussianBlur>
        </filter>
        <filter x="-43.9%" y="-28.8%" width="187.9%" height="157.7%" filterUnits="objectBoundingBox" id="filter-2">
            <feGaussianBlur stdDeviation="10" in="SourceGraphic"></feGaussianBlur>
        </filter>
        <linearGradient x1="31.8296421%" y1="100%" x2="66.175006%" y2="28.2593882%" id="linearGradient-3">
            <stop stop-color="#66DED8" offset="0%"></stop>
            <stop stop-color="#28BB9E" offset="100%"></stop>
        </linearGradient>
        <filter x="-47.8%" y="-28.8%" width="195.7%" height="157.7%" filterUnits="objectBoundingBox" id="filter-4">
            <feGaussianBlur stdDeviation="10" in="SourceGraphic"></feGaussianBlur>
        </filter>
        <linearGradient x1="33.557621%" y1="100%" x2="64.6367826%" y2="28.2593882%" id="linearGradient-5">
            <stop stop-color="#66DED8" offset="0%"></stop>
            <stop stop-color="#28BB9E" offset="100%"></stop>
        </linearGradient>
        <linearGradient x1="50%" y1="0%" x2="50%" y2="100%" id="linearGradient-6">
            <stop stop-color="#34C2A9" stop-opacity="0.3" offset="0%"></stop>
            <stop stop-color="#FFFFFF" offset="100%"></stop>
        </linearGradient>
    </defs>
    <g id="页面-1" stroke="none" stroke-width="1" fill="none" fill-rule="evenodd">
        <g id="其他" transform="translate(30.000000, 23.997302)">
            <g id="投影_其他备份" transform="translate(0.000000, 6.002698)">
                <path d="M4,0 L176,0 C178.209139,-4.05812251e-16 180,1.790861 180,4 L180,100 C180,102.209139 178.209139,104 176,104 L4,104 C1.790861,104 2.705415e-16,102.209139 0,100 L0,4 C-2.705415e-16,1.790861 1.790861,4.05812251e-16 4,0 Z" id="蒙版" opacity="0.6"></path>
                <path d="M176,0.0026983544 C178.209139,0.0026983544 180,1.79355936 180,4.00269835 L180,100.002698 C180,102.211837 178.209139,104.002698 176,104.002698 L66,104.004095 C66.4312692,99.7288951 66.6521592,95.3915926 66.6521592,91.0026984 C66.6521592,55.4050112 52.1206949,23.2013294 28.6661134,0 L176,0.0026983544 Z" id="路径" fill="#DADBE3" opacity="0.6" filter="url(#filter-1)"></path>
                <path d="M30.3065066,0 C53.7610881,23.2013294 68.2925524,55.4050112 68.2925524,91.0026984 C68.2925524,95.3912499 68.0716969,99.7282179 67.6404942,104.003094 L4,104.003094 C1.790861,104.003094 0,102.211837 0,100.002698 L0,4.00269835 C0,1.79355936 1.790861,0.0026983544 4,0.0026983544 L30.3065066,0 Z" id="路径" fill="#E9F7F4" opacity="0.6" filter="url(#filter-2)"></path>
                <path d="M62.6961175,91.001493 C62.6961175,95.3942985 62.4600813,99.7319748 62,104.002531 L4,104.002531 C1.790861,104.002531 0,102.210632 0,100.001493 L0,4.00149296 C0,1.79235396 1.790861,0.0014929638 4,0.0014929638 L20.9216167,0 C46.4992788,22.0068464 62.6961175,54.6126825 62.6961175,91.001493 Z" id="路径" fill="url(#linearGradient-3)" opacity="0.200642885" filter="url(#filter-4)"></path>
            </g>
            <path d="M4,0.0026983544 L176,0.0026983544 C178.209139,0.0026983544 180,1.79355936 180,4.00269835 L180,100.002698 C180,102.211837 178.209139,104.002698 176,104.002698 L4,104.002698 C1.790861,104.002698 1.13957379e-13,102.211837 1.13686838e-13,100.002698 L1.13686838e-13,4.00269835 C1.13416296e-13,1.79355936 1.790861,0.0026983544 4,0.0026983544 Z" id="B4备份" fill="#FFFFFF"></path>
            <g id="图形_其他备份">
                <path d="M29.6544484,0 C53.1090299,23.2013294 67.6404942,55.4050112 67.6404942,91.0026984 C67.6404942,95.3912499 67.4196387,99.7282179 66.988436,104.003094 L4,104.003094 C1.790861,104.003094 0,102.211837 0,100.002698 L0,4.00269835 C0,1.79355936 1.790861,0.0026983544 4,0.0026983544 L29.6544484,0 Z" id="路径" fill="#E9F7F4"></path>
                <path d="M59.6404942,91.0026984 C59.6404942,95.3955039 59.4044581,99.7331802 58.9443768,104.003736 L4,104.003736 C1.790861,104.003736 0,102.211837 0,100.002698 L0,4.00269835 C0,1.79355936 1.790861,0.0026983544 4,0.0026983544 L17.8659935,0.0012053906 C43.4436556,22.0080518 59.6404942,54.6138879 59.6404942,91.0026984 Z" id="路径" fill="url(#linearGradient-5)"></path>
            </g>
            <g id="icon_其他备份" transform="translate(0.000000, 28.002698)" fill-rule="nonzero">
                <rect id="矩形" fill="#000000" opacity="0" x="0" y="0" width="48" height="48"></rect>
                <path d="M17.9015625,4.603125 L8.690625,4.603125 C6.4265625,4.603125 4.59375,6.4359375 4.59375,8.7 L4.59375,17.915625 C4.59375,20.1796875 6.4265625,22.0125 8.690625,22.0125 L17.90625,22.0125 C20.1703125,22.0125 22.003125,20.1796875 22.003125,17.915625 L22.003125,8.7 C21.9984375,6.4359375 20.165625,4.603125 17.9015625,4.603125 Z M39.403125,4.603125 L30.1921875,4.603125 C27.928125,4.603125 26.0953125,6.4359375 26.0953125,8.7 L26.0953125,17.915625 C26.0953125,20.1796875 27.928125,22.0125 30.1921875,22.0125 L39.4078125,22.0125 C41.671875,22.0125 43.5046875,20.1796875 43.5046875,17.915625 L43.5046875,8.7 C43.5,6.4359375 41.6671875,4.603125 39.403125,4.603125 L39.403125,4.603125 Z M17.9015625,26.1046875 L8.690625,26.1046875 C6.4265625,26.1046875 4.59375,27.9375 4.59375,30.2015625 L4.59375,39.4171875 C4.59375,41.68125 6.4265625,43.5140625 8.690625,43.5140625 L17.90625,43.5140625 C20.1703125,43.5140625 22.003125,41.68125 22.003125,39.4171875 L22.003125,30.2015625 C21.9984375,27.9375 20.165625,26.1046875 17.9015625,26.1046875 Z M39.403125,26.1046875 L30.1921875,26.1046875 C27.928125,26.1046875 26.0953125,27.9375 26.0953125,30.2015625 L26.0953125,39.4171875 C26.0953125,41.68125 27.928125,43.5140625 30.1921875,43.5140625 L39.4078125,43.5140625 C41.671875,43.5140625 43.5046875,41.68125 43.5046875,39.4171875 L43.5046875,30.2015625 C43.5,27.9375 41.6671875,26.1046875 39.403125,26.1046875 L39.403125,26.1046875 Z" id="形状" fill="#FFFFFF"></path>
                <path d="M19.6234771,26.4824759 C20.9656153,27.1042125 21.9142817,28.4306085 21.997225,29.9878281 L22.003125,30.2015625 L22.003125,39.4171875 C22.003125,41.612642 20.279709,43.4025869 18.1108468,43.5090524 L17.90625,43.5140625 L8.690625,43.5140625 C7.04093317,43.5140625 5.62020045,42.5409863 4.97062209,41.1370291 C5.49367216,41.3791111 6.07627195,41.5140625 6.690625,41.5140625 L15.90625,41.5140625 C18.1703125,41.5140625 20.003125,39.68125 20.003125,37.4171875 L20.003125,28.2015625 C20.0019886,27.6526989 19.8934143,27.1291796 19.6973034,26.6509729 L19.6234771,26.4824759 Z M41.126029,26.4829344 C42.4676584,27.1048711 43.4158848,28.4310196 43.4987901,29.9878781 L43.5046875,30.2015625 L43.5046875,39.4171875 C43.5046875,41.612642 41.7812715,43.4025869 39.6124093,43.5090524 L39.4078125,43.5140625 L30.1921875,43.5140625 C28.5424957,43.5140625 27.1217629,42.5409863 26.4721846,41.1370291 C26.9952012,41.3791034 27.5778168,41.5140625 28.1921875,41.5140625 L37.4078125,41.5140625 C39.671875,41.5140625 41.5046875,39.68125 41.5046875,37.4171875 L41.5046875,28.2015625 C41.5035511,27.6526989 41.3949768,27.1291796 41.1988659,26.6509729 L41.126029,26.4829344 Z M19.6234771,4.98091336 C20.9656153,5.60265001 21.9142817,6.92904603 21.997225,8.48626565 L22.003125,8.7 L22.003125,17.915625 C22.003125,20.1110795 20.279709,21.9010244 18.1108468,22.0074899 L17.90625,22.0125 L8.690625,22.0125 C7.04093317,22.0125 5.62020045,21.0394238 4.97062209,19.6354666 C5.49367216,19.8775486 6.07627195,20.0125 6.690625,20.0125 L15.90625,20.0125 C18.1703125,20.0125 20.003125,18.1796875 20.003125,15.915625 L20.003125,6.7 C20.0019886,6.15113636 19.8934143,5.62761708 19.6973034,5.14941043 L19.6234771,4.98091336 Z M41.126029,4.98137188 C42.4676584,5.60330862 43.4158848,6.92945708 43.4987901,8.48631556 L43.5046875,8.7 L43.5046875,17.915625 C43.5046875,20.1110795 41.7812715,21.9010244 39.6124093,22.0074899 L39.4078125,22.0125 L30.1921875,22.0125 C28.5424957,22.0125 27.1217629,21.0394238 26.4721846,19.6354666 C26.9952012,19.8775409 27.5778168,20.0125 28.1921875,20.0125 L37.4078125,20.0125 C39.671875,20.0125 41.5046875,18.1796875 41.5046875,15.915625 L41.5046875,6.7 C41.5035511,6.15113636 41.3949768,5.62761708 41.1988659,5.14941043 L41.126029,4.98137188 Z" id="形状" fill="url(#linearGradient-6)"></path>
            </g>
        </g>
    </g>
</svg>