<?xml version="1.0" encoding="UTF-8"?>
<svg width="240px" height="164px" viewBox="0 0 240 164" version="1.1" xmlns="http://www.w3.org/2000/svg" xmlns:xlink="http://www.w3.org/1999/xlink">
    <title>待处理</title>
    <defs>
        <filter x="-19.9%" y="-28.8%" width="139.8%" height="157.7%" filterUnits="objectBoundingBox" id="filter-1">
            <feGaussianBlur stdDeviation="10" in="SourceGraphic"></feGaussianBlur>
        </filter>
        <filter x="-44.1%" y="-28.8%" width="188.3%" height="157.7%" filterUnits="objectBoundingBox" id="filter-2">
            <feGaussianBlur stdDeviation="10" in="SourceGraphic"></feGaussianBlur>
        </filter>
        <linearGradient x1="29.4371506%" y1="100%" x2="68.3047694%" y2="28.2593882%" id="linearGradient-3">
            <stop stop-color="#FFDA83" offset="0%"></stop>
            <stop stop-color="#FFC35A" offset="100%"></stop>
        </linearGradient>
        <filter x="-45.0%" y="-28.8%" width="190.0%" height="157.7%" filterUnits="objectBoundingBox" id="filter-4">
            <feGaussianBlur stdDeviation="10" in="SourceGraphic"></feGaussianBlur>
        </filter>
        <linearGradient x1="33.742571%" y1="100%" x2="64.4721426%" y2="28.2593882%" id="linearGradient-5">
            <stop stop-color="#FFDA83" offset="0%"></stop>
            <stop stop-color="#FFC35A" offset="100%"></stop>
        </linearGradient>
        <linearGradient x1="13.3200887%" y1="-20.1745951%" x2="43.0121109%" y2="42.7961497%" id="linearGradient-6">
            <stop stop-color="#FFCA66" stop-opacity="0.3" offset="0%"></stop>
            <stop stop-color="#FFFFFF" offset="100%"></stop>
        </linearGradient>
        <linearGradient x1="13.3200887%" y1="-38.2798099%" x2="43.0121109%" y2="40.937539%" id="linearGradient-7">
            <stop stop-color="#FFCA66" stop-opacity="0.3" offset="0%"></stop>
            <stop stop-color="#FFFFFF" offset="100%"></stop>
        </linearGradient>
    </defs>
    <g id="页面-1" stroke="none" stroke-width="1" fill="none" fill-rule="evenodd">
        <g id="编组-23" transform="translate(30.000000, 23.997302)">
            <g id="投影_待处理事项备份" transform="translate(0.000000, 6.002698)">
                <path d="M4,0 L175.590001,0 C177.79914,1.52910644e-14 179.590001,1.790861 179.590001,4 L179.590001,100 C179.590001,102.209139 177.79914,104 175.590001,104 L4,104 C1.790861,104 2.705415e-16,102.209139 0,100 L0,4 C-2.705415e-16,1.790861 1.790861,4.05812251e-16 4,0 Z" id="蒙版" opacity="0.6"></path>
                <path d="M175.590001,0.0026983544 C177.79914,0.0026983544 179.590001,1.79355936 179.590001,4.00269835 L179.590001,100.002698 C179.590001,102.211837 177.79914,104.002698 175.590001,104.002698 L66,104.004095 C66.4312692,99.7288951 66.6521592,95.3915926 66.6521592,91.0026984 C66.6521592,55.4050112 52.1206949,23.2013294 28.6661134,0 L175.590001,0.0026983544 Z" id="路径" fill="#DADBE3" opacity="0.6" filter="url(#filter-1)"></path>
                <path d="M29.9701287,0 C53.4247103,23.2013294 67.9561746,55.4050112 67.9561746,91.0026984 C67.9561746,95.3912499 67.7353191,99.7282179 67.3041164,104.003094 L4,104.003094 C1.790861,104.003094 0,102.211837 0,100.002698 L0,4.00269835 C0,1.79355936 1.790861,0.0026983544 4,0.0026983544 L29.9701287,0 Z" id="路径" fill="#FFF8EE" opacity="0.6" filter="url(#filter-2)"></path>
                <path d="M66.6961175,91.001493 C66.6961175,95.3942985 66.4600813,99.7319748 66,104.002531 L4,104.002531 C1.790861,104.002531 0,102.210632 0,100.001493 L0,4.00149296 C0,1.79235396 1.790861,0.0014929638 4,0.0014929638 L24.9216167,0 C50.4992788,22.0068464 66.6961175,54.6126825 66.6961175,91.001493 Z" id="路径" fill="url(#linearGradient-3)" opacity="0.200642885" filter="url(#filter-4)"></path>
            </g>
            <path d="M4,0.0026983544 L176,0.0026983544 C178.209139,0.0026983544 180,1.79355936 180,4.00269835 L180,100.002698 C180,102.211837 178.209139,104.002698 176,104.002698 L4,104.002698 C1.790861,104.002698 2.705415e-16,102.211837 0,100.002698 L0,4.00269835 C-2.705415e-16,1.79355936 1.790861,0.0026983544 4,0.0026983544 Z" id="B2备份" fill="#FFFFFF"></path>
            <g id="图形_待处理事项备份">
                <path d="M29.3180705,0 C52.7726521,23.2013294 67.3041164,55.4050112 67.3041164,91.0026984 C67.3041164,95.3912499 67.0832609,99.7282179 66.6520582,104.003094 L4,104.003094 C1.790861,104.003094 0,102.211837 0,100.002698 L0,4.00269835 C0,1.79355936 1.790861,0.0026983544 4,0.0026983544 L29.3180705,0 Z" id="路径" fill="#FFF8EE"></path>
                <path d="M59.3041164,91.0026984 C59.3041164,95.3955039 59.0680802,99.7331802 58.6079989,104.003736 L4,104.003736 C1.790861,104.003736 0,102.211837 0,100.002698 L0,4.00269835 C0,1.79355936 1.790861,0.0026983544 4,0.0026983544 L17.5296156,0.0012053906 C43.1072777,22.0080518 59.3041164,54.6138879 59.3041164,91.0026984 Z" id="路径" fill="url(#linearGradient-5)"></path>
            </g>
            <g id="icon_待处理事项备份" transform="translate(3.000000, 28.002698)" fill-rule="nonzero">
                <rect id="矩形" fill="#000000" opacity="0" x="0" y="0" width="48" height="48"></rect>
                <path d="M45.375,37.96875 C46.21875,38.53125 46.21875,39.9375 45.1875,40.78125 L40.59375,45.375 C39.75,46.21875 38.625,46.21875 37.78125,45.375 L19.59375,27.1875 C15,28.96875 9.65625,28.03125 5.8125,24.1875 C1.78125,20.15625 0.75,14.15625 3.1875,9.375 L12,18 L18,12 L9.375,3.375 C14.15625,1.21875 20.15625,1.96875 24.1875,6 C28.03125,9.84375 28.96875,15.1875 27.1875,19.78125 L45.375,37.96875 Z" id="路径" fill="#FFFFFF"></path>
                <path d="M41,45 L40.59375,45.375 C39.75,46.21875 38.625,46.21875 37.78125,45.375 L19.59375,27.1875 C20.8210884,27.1199401 21.9839575,25.9839575 25,29 C29,33 37,41 41,45 Z" id="路径备份-4" fill="url(#linearGradient-6)"></path>
                <path d="M20,26 C17.3333333,23.3333333 14.6666667,20.6666667 12,18 L18,12 C20.6666667,14.6666667 23.3333333,17.3333333 26,20 L20,26 Z" id="路径备份-3" fill="url(#linearGradient-7)"></path>
            </g>
        </g>
    </g>
</svg>