<?xml version="1.0" encoding="UTF-8"?>
<svg width="68px" height="104px" viewBox="0 0 68 104" version="1.1" xmlns="http://www.w3.org/2000/svg" xmlns:xlink="http://www.w3.org/1999/xlink">
    <title>待处理1</title>
    <defs>
        <linearGradient x1="33.742571%" y1="100%" x2="64.4721426%" y2="28.2593882%" id="linearGradient-1">
            <stop stop-color="#FFDA83" offset="0%"></stop>
            <stop stop-color="#FFC35A" offset="100%"></stop>
        </linearGradient>
        <linearGradient x1="13.3200887%" y1="-20.1745951%" x2="43.0121109%" y2="42.7961497%" id="linearGradient-2">
            <stop stop-color="#FFCA66" stop-opacity="0.3" offset="0%"></stop>
            <stop stop-color="#FFFFFF" offset="100%"></stop>
        </linearGradient>
        <linearGradient x1="13.3200887%" y1="-38.2798099%" x2="43.0121109%" y2="40.937539%" id="linearGradient-3">
            <stop stop-color="#FFCA66" stop-opacity="0.3" offset="0%"></stop>
            <stop stop-color="#FFFFFF" offset="100%"></stop>
        </linearGradient>
    </defs>
    <g id="页面-1" stroke="none" stroke-width="1" fill="none" fill-rule="evenodd">
        <g id="待处理1" transform="translate(-0.000000, -0.002698)">
            <g id="图形_待处理事项备份">
                <path d="M29.3180705,0 C52.7726521,23.2013294 67.3041164,55.4050112 67.3041164,91.0026984 C67.3041164,95.3912499 67.0832609,99.7282179 66.6520582,104.003094 L4,104.003094 C1.790861,104.003094 0,102.211837 0,100.002698 L0,4.00269835 C0,1.79355936 1.790861,0.0026983544 4,0.0026983544 L29.3180705,0 Z" id="路径" fill="#FFF8EE"></path>
                <path d="M59.3041164,91.0026984 C59.3041164,95.3955039 59.0680802,99.7331802 58.6079989,104.003736 L4,104.003736 C1.790861,104.003736 0,102.211837 0,100.002698 L0,4.00269835 C0,1.79355936 1.790861,0.0026983544 4,0.0026983544 L17.5296156,0.0012053906 C43.1072777,22.0080518 59.3041164,54.6138879 59.3041164,91.0026984 Z" id="路径" fill="url(#linearGradient-1)"></path>
            </g>
            <g id="icon_待处理事项备份" transform="translate(0.000000, 28.002698)" fill-rule="nonzero">
                <rect id="矩形" fill="#000000" opacity="0" x="0" y="0" width="48" height="48"></rect>
                <path d="M45.375,37.96875 C46.21875,38.53125 46.21875,39.9375 45.1875,40.78125 L40.59375,45.375 C39.75,46.21875 38.625,46.21875 37.78125,45.375 L19.59375,27.1875 C15,28.96875 9.65625,28.03125 5.8125,24.1875 C1.78125,20.15625 0.75,14.15625 3.1875,9.375 L12,18 L18,12 L9.375,3.375 C14.15625,1.21875 20.15625,1.96875 24.1875,6 C28.03125,9.84375 28.96875,15.1875 27.1875,19.78125 L45.375,37.96875 Z" id="路径" fill="#FFFFFF"></path>
                <path d="M41,45 L40.59375,45.375 C39.75,46.21875 38.625,46.21875 37.78125,45.375 L19.59375,27.1875 C20.8210884,27.1199401 21.9839575,25.9839575 25,29 C29,33 37,41 41,45 Z" id="路径备份-4" fill="url(#linearGradient-2)"></path>
                <path d="M20,26 C17.3333333,23.3333333 14.6666667,20.6666667 12,18 L18,12 C20.6666667,14.6666667 23.3333333,17.3333333 26,20 L20,26 Z" id="路径备份-3" fill="url(#linearGradient-3)"></path>
            </g>
        </g>
    </g>
</svg>