<?xml version="1.0" encoding="UTF-8"?>
<svg width="240px" height="164px" viewBox="0 0 240 164" version="1.1" xmlns="http://www.w3.org/2000/svg" xmlns:xlink="http://www.w3.org/1999/xlink">
    <title>待审核</title>
    <defs>
        <filter x="-20.4%" y="-28.8%" width="140.9%" height="157.7%" filterUnits="objectBoundingBox" id="filter-1">
            <feGaussianBlur stdDeviation="10" in="SourceGraphic"></feGaussianBlur>
        </filter>
        <filter x="-43.9%" y="-28.8%" width="187.9%" height="157.7%" filterUnits="objectBoundingBox" id="filter-2">
            <feGaussianBlur stdDeviation="10" in="SourceGraphic"></feGaussianBlur>
        </filter>
        <linearGradient x1="27.1843605%" y1="100%" x2="70.3101725%" y2="28.2593882%" id="linearGradient-3">
            <stop stop-color="#A8ECFF" offset="0%"></stop>
            <stop stop-color="#5CD0FF" offset="100%"></stop>
        </linearGradient>
        <filter x="-42.7%" y="-28.8%" width="185.4%" height="157.7%" filterUnits="objectBoundingBox" id="filter-4">
            <feGaussianBlur stdDeviation="10" in="SourceGraphic"></feGaussianBlur>
        </filter>
        <linearGradient x1="33.5512442%" y1="100%" x2="64.6424591%" y2="28.2593882%" id="linearGradient-5">
            <stop stop-color="#A8ECFF" offset="0%"></stop>
            <stop stop-color="#5CD0FF" offset="100%"></stop>
        </linearGradient>
        <linearGradient x1="36.8669694%" y1="38.7293748%" x2="70.5892275%" y2="103.824812%" id="linearGradient-6">
            <stop stop-color="#71D8FF" stop-opacity="0.5" offset="0%"></stop>
            <stop stop-color="#FFFFFF" offset="100%"></stop>
        </linearGradient>
    </defs>
    <g id="页面-1" stroke="none" stroke-width="1" fill="none" fill-rule="evenodd">
        <g id="待审核" transform="translate(30.000000, 23.997302)">
            <g id="投影_待审核文章备份" transform="translate(0.000000, 6.002698)">
                <polygon id="蒙版" opacity="0.6" points="0 0 180 0 180 104 0 104"></polygon>
                <path d="M176.503464,0.00269824815 C178.299797,0.00269824815 179.756012,1.79348873 179.756012,4.00254074 L179.756012,99.9987606 C179.756012,102.207813 178.299797,103.998603 176.503464,103.998603 L63.3575696,104 C63.7082506,99.7249682 63.8878644,95.3878364 63.8878644,90.999115 C63.8878644,55.4028296 52.0717912,23.2004159 33,0 L176.503464,0.00269824815 Z" id="路径" fill="#DADBE3" opacity="0.6" filter="url(#filter-1)"></path>
                <path d="M31.4494035,0 C54.1932402,23.2006392 68.284357,55.403363 68.284357,91 C68.284357,95.3884121 68.0701941,99.7252511 67.6520582,104 L3.87878788,104 C1.73659249,104 0,102.208797 0,99.9997234 L0,4.00257928 C0,1.793506 1.73659249,0.00269827413 3.87878788,0.00269827413 L31.4494035,0 Z" id="路径" fill="#EEFAFF" opacity="0.6" filter="url(#filter-2)"></path>
                <path d="M70.2529653,90.9992784 C70.2529653,95.391977 70.0245433,99.7295477 69.5793033,104 L3.87096774,104 C1.73309129,104 0,102.208145 0,99.9990594 L0,4.00139558 C0,1.79231035 1.73309129,0.00149292747 3.87096774,0.00149292747 L29.8260291,0 C54.5786053,22.0063109 70.2529653,54.6113535 70.2529653,90.9992784 Z" id="路径" fill="url(#linearGradient-3)" opacity="0.200642885" filter="url(#filter-4)"></path>
            </g>
            <path d="M4,0.0026983544 L176,0.0026983544 C178.209139,0.0026983544 180,1.79355936 180,4.00269835 L180,100.002698 C180,102.211837 178.209139,104.002698 176,104.002698 L4,104.002698 C1.790861,104.002698 2.705415e-16,102.211837 0,100.002698 L0,4.00269835 C-2.705415e-16,1.79355936 1.790861,0.0026983544 4,0.0026983544 Z" id="B1备份" fill="#FFFFFF"></path>
            <g id="图形_待审核文章备份" transform="translate(0.000000, 0.000000)">
                <path d="M29.6660124,0 C53.1205939,23.2013294 67.6520582,55.4050112 67.6520582,91.0026984 C67.6520582,95.3912499 67.4312027,99.7282179 67,104.003094 L4,104.003094 C1.790861,104.003094 0,102.211837 0,100.002698 L0,4.00269835 C0,1.79355936 1.790861,0.0026983544 4,0.0026983544 L29.6660124,0 Z" id="路径" fill="#EEFAFF"></path>
                <path d="M59.6520582,91.0026984 C59.6520582,95.3955039 59.4160221,99.7331802 58.9559407,104.003736 L4,104.003736 C1.790861,104.003736 0,102.211837 0,100.002698 L0,4.00269835 C0,1.79355936 1.790861,0.0026983544 4,0.0026983544 L17.8775574,0.0012053906 C43.4552195,22.0080518 59.6520582,54.6138879 59.6520582,91.0026984 Z" id="路径" fill="url(#linearGradient-5)"></path>
            </g>
            <g id="icon_待审核文章备份" transform="translate(0.000000, 28.002698)" fill-rule="nonzero">
                <rect id="矩形" fill="#000000" opacity="0" x="0" y="0" width="48" height="48"></rect>
                <path d="M24,3.99999998 C30.075,3.99999998 35,8.925 35,15 C35,18.086 33.729,20.876 31.682,22.873 C30.9312197,23.5397227 30.5017165,24.4959133 30.502,25.5 C30.5018578,27.3964862 32.0121979,28.9480658 33.908,28.999 L33.909,29 L39,29 C40.6568542,29 42,30.3431458 42,32 L42,41 C42,42.6568543 40.6568542,44 39,44 L9,44 C7.34314575,44 6,42.6568543 6,41 L6,32 C6,30.3431458 7.34314575,29 9,29 L14.091,29 L14.091,28.998 L14.206,28.995 C15.636643,28.9167771 16.8751361,27.9744883 17.332119,26.6165396 C17.7891019,25.2585908 17.3722777,23.7592474 16.28,22.832 L16.318,22.873 L16.086,22.64 C14.1030295,20.5914927 12.9960952,17.8510593 13,15 C13,8.925 17.925,3.99999998 24,3.99999998 Z M34.5,35 L13.5,35 C12.6715729,35 12,35.6715729 12,36.5 C12,37.3284271 12.6715729,38 13.5,38 L34.5,38 C35.3284271,38 36,37.3284271 36,36.5 C36,35.6715729 35.3284271,35 34.5,35 Z" id="形状" fill="#FFFFFF"></path>
                <path d="M33.4047275,9.29162937 C34.416992,10.9558052 35,12.9098357 35,15 C35,18.086 33.729,20.876 31.682,22.873 C30.9312197,23.5397227 30.5017165,24.4959133 30.502,25.5 C30.5018578,27.3964862 32.0121979,28.9480658 33.908,28.999 L14.091,29 L14.206,28.995 C15.636643,28.9167771 16.8751361,27.9744883 17.332119,26.6165396 C17.7891019,25.2585908 17.3722777,23.7592474 16.28,22.832 L16.318,22.873 L16.086,22.64 C23,27 36,22 33.4047275,9.29162937 Z" id="路径备份-2" fill="url(#linearGradient-6)"></path>
            </g>
        </g>
    </g>
</svg>