<?xml version="1.0" encoding="UTF-8"?>
<svg width="240px" height="164px" viewBox="0 0 240 164" version="1.1" xmlns="http://www.w3.org/2000/svg" xmlns:xlink="http://www.w3.org/1999/xlink">
    <title>投影_其他</title>
    <defs>
        <filter x="-19.8%" y="-28.8%" width="139.6%" height="157.7%" filterUnits="objectBoundingBox" id="filter-1">
            <feGaussianBlur stdDeviation="10" in="SourceGraphic"></feGaussianBlur>
        </filter>
        <filter x="-43.9%" y="-28.8%" width="187.9%" height="157.7%" filterUnits="objectBoundingBox" id="filter-2">
            <feGaussianBlur stdDeviation="10" in="SourceGraphic"></feGaussianBlur>
        </filter>
        <linearGradient x1="31.8296421%" y1="100%" x2="66.175006%" y2="28.2593882%" id="linearGradient-3">
            <stop stop-color="#66DED8" offset="0%"></stop>
            <stop stop-color="#28BB9E" offset="100%"></stop>
        </linearGradient>
        <filter x="-47.8%" y="-28.8%" width="195.7%" height="157.7%" filterUnits="objectBoundingBox" id="filter-4">
            <feGaussianBlur stdDeviation="10" in="SourceGraphic"></feGaussianBlur>
        </filter>
    </defs>
    <g id="页面-1" stroke="none" stroke-width="1" fill="none" fill-rule="evenodd">
        <g id="投影_其他" transform="translate(30.000000, 30.000000)">
            <path d="M4,0 L176,0 C178.209139,-4.05812251e-16 180,1.790861 180,4 L180,100 C180,102.209139 178.209139,104 176,104 L4,104 C1.790861,104 2.705415e-16,102.209139 0,100 L0,4 C-2.705415e-16,1.790861 1.790861,4.05812251e-16 4,0 Z" id="蒙版" opacity="0.6"></path>
            <path d="M176,0.0026983544 C178.209139,0.0026983544 180,1.79355936 180,4.00269835 L180,100.002698 C180,102.211837 178.209139,104.002698 176,104.002698 L66,104.004095 C66.4312692,99.7288951 66.6521592,95.3915926 66.6521592,91.0026984 C66.6521592,55.4050112 52.1206949,23.2013294 28.6661134,0 L176,0.0026983544 Z" id="路径" fill="#DADBE3" opacity="0.6" filter="url(#filter-1)"></path>
            <path d="M30.3065066,0 C53.7610881,23.2013294 68.2925524,55.4050112 68.2925524,91.0026984 C68.2925524,95.3912499 68.0716969,99.7282179 67.6404942,104.003094 L4,104.003094 C1.790861,104.003094 0,102.211837 0,100.002698 L0,4.00269835 C0,1.79355936 1.790861,0.0026983544 4,0.0026983544 L30.3065066,0 Z" id="路径" fill="#E9F7F4" opacity="0.6" filter="url(#filter-2)"></path>
            <path d="M62.6961175,91.001493 C62.6961175,95.3942985 62.4600813,99.7319748 62,104.002531 L4,104.002531 C1.790861,104.002531 0,102.210632 0,100.001493 L0,4.00149296 C0,1.79235396 1.790861,0.0014929638 4,0.0014929638 L20.9216167,0 C46.4992788,22.0068464 62.6961175,54.6126825 62.6961175,91.001493 Z" id="路径" fill="url(#linearGradient-3)" opacity="0.200642885" filter="url(#filter-4)"></path>
        </g>
    </g>
</svg>