<?xml version="1.0" encoding="UTF-8"?>
<svg width="240px" height="164px" viewBox="0 0 240 164" version="1.1" xmlns="http://www.w3.org/2000/svg" xmlns:xlink="http://www.w3.org/1999/xlink">
    <title>投影_待审核</title>
    <defs>
        <filter x="-20.4%" y="-28.8%" width="140.9%" height="157.7%" filterUnits="objectBoundingBox" id="filter-1">
            <feGaussianBlur stdDeviation="10" in="SourceGraphic"></feGaussianBlur>
        </filter>
        <filter x="-43.9%" y="-28.8%" width="187.9%" height="157.7%" filterUnits="objectBoundingBox" id="filter-2">
            <feGaussianBlur stdDeviation="10" in="SourceGraphic"></feGaussianBlur>
        </filter>
        <linearGradient x1="27.1843605%" y1="100%" x2="70.3101725%" y2="28.2593882%" id="linearGradient-3">
            <stop stop-color="#A8ECFF" offset="0%"></stop>
            <stop stop-color="#5CD0FF" offset="100%"></stop>
        </linearGradient>
        <filter x="-42.7%" y="-28.8%" width="185.4%" height="157.7%" filterUnits="objectBoundingBox" id="filter-4">
            <feGaussianBlur stdDeviation="10" in="SourceGraphic"></feGaussianBlur>
        </filter>
    </defs>
    <g id="页面-1" stroke="none" stroke-width="1" fill="none" fill-rule="evenodd">
        <g id="投影_待审核" transform="translate(30.000000, 30.000000)">
            <polygon id="蒙版" opacity="0.6" points="0 0 180 0 180 104 0 104"></polygon>
            <path d="M176.503464,0.00269824815 C178.299797,0.00269824815 179.756012,1.79348873 179.756012,4.00254074 L179.756012,99.9987606 C179.756012,102.207813 178.299797,103.998603 176.503464,103.998603 L63.3575696,104 C63.7082506,99.7249682 63.8878644,95.3878364 63.8878644,90.999115 C63.8878644,55.4028296 52.0717912,23.2004159 33,0 L176.503464,0.00269824815 Z" id="路径" fill="#DADBE3" opacity="0.6" filter="url(#filter-1)"></path>
            <path d="M31.4494035,0 C54.1932402,23.2006392 68.284357,55.403363 68.284357,91 C68.284357,95.3884121 68.0701941,99.7252511 67.6520582,104 L3.87878788,104 C1.73659249,104 0,102.208797 0,99.9997234 L0,4.00257928 C0,1.793506 1.73659249,0.00269827413 3.87878788,0.00269827413 L31.4494035,0 Z" id="路径" fill="#EEFAFF" opacity="0.6" filter="url(#filter-2)"></path>
            <path d="M70.2529653,90.9992784 C70.2529653,95.391977 70.0245433,99.7295477 69.5793033,104 L3.87096774,104 C1.73309129,104 0,102.208145 0,99.9990594 L0,4.00139558 C0,1.79231035 1.73309129,0.00149292747 3.87096774,0.00149292747 L29.8260291,0 C54.5786053,22.0063109 70.2529653,54.6113535 70.2529653,90.9992784 Z" id="路径" fill="url(#linearGradient-3)" opacity="0.200642885" filter="url(#filter-4)"></path>
        </g>
    </g>
</svg>