<?xml version="1.0" encoding="UTF-8"?>
<svg width="69px" height="104px" viewBox="0 0 69 104" version="1.1" xmlns="http://www.w3.org/2000/svg" xmlns:xlink="http://www.w3.org/1999/xlink">
    <title>自定义1</title>
    <defs>
        <linearGradient x1="33.1896752%" y1="100%" x2="64.9643229%" y2="28.2593882%" id="linearGradient-1">
            <stop stop-color="#BCB0FF" offset="0%"></stop>
            <stop stop-color="#7E7CFF" offset="100%"></stop>
        </linearGradient>
        <linearGradient x1="59.2873358%" y1="-64.1990215%" x2="59.2873358%" y2="113.535858%" id="linearGradient-2">
            <stop stop-color="#8A86FF" stop-opacity="0.3" offset="0%"></stop>
            <stop stop-color="#FFFFFF" offset="100%"></stop>
        </linearGradient>
    </defs>
    <g id="页面-1" stroke="none" stroke-width="1" fill="none" fill-rule="evenodd">
        <g id="自定义1" transform="translate(0.000000, -0.002698)">
            <path d="M30.3180705,0 C53.7726521,23.2013294 68.3041164,55.4050112 68.3041164,91.0026984 C68.3041164,95.3912499 68.0832609,99.7282179 67.6520582,104.003094 L4,104.003094 C1.790861,104.003094 0,102.211837 0,100.002698 L0,4.00269835 C0,1.79355936 1.790861,0.0026983544 4,0.0026983544 L30.3180705,0 Z" id="路径备份-15" fill="#F1F1FF"></path>
            <path d="M60.3041164,91.0026984 C60.3041164,95.3955039 60.0680803,99.7331802 59.6079989,104.003736 L4,104.003736 C1.790861,104.003736 0,102.211837 0,100.002698 L0,4.00269835 C0,1.79355936 1.790861,0.0026983544 4,0.0026983544 L18.5296156,0.0012053906 C44.1072777,22.0080518 60.3041164,54.6138879 60.3041164,91.0026984 Z" id="路径备份-16" fill="url(#linearGradient-1)"></path>
            <path d="M40.8503255,51.012026 L37.8784045,51.012026 L37.8784045,43.0868873 C37.8784045,40.8975556 36.1051427,39.1242939 33.9158111,39.1242939 L25.9906244,39.1242939 L25.9906244,36.1523729 C25.9906244,33.4181786 23.7716009,31.1991551 21.0374066,31.1991551 C18.3032124,31.1991551 16.0841889,33.4181786 16.0841889,36.1523729 L16.0841889,39.1242939 L8.15905014,39.1242939 C5.96971848,39.1242939 4.21626733,40.8975557 4.21626733,43.0868873 L4.20633808,50.6157667 L7.16837781,50.6157667 C10.1204883,50.6157667 12.5178549,53.0131332 12.5178549,55.9652437 C12.5178549,58.9173542 10.1204883,61.3147208 7.16837781,61.3147208 L4.20638608,61.3147208 L4.19645683,68.8436002 C4.19645683,71.0329319 5.96971858,72.8061936 8.15905019,72.8061936 L15.6879296,72.8061936 L15.6879296,69.8342725 C15.6879296,66.8821621 18.0852962,64.4847955 21.0374066,64.4847955 C23.9895171,64.4847955 26.3868837,66.8821621 26.3868837,69.8342725 L26.3868837,72.8061936 L33.9157631,72.8061936 C36.1050948,72.8061936 37.8783565,71.0329318 37.8783565,68.8436002 L37.8783565,60.9185094 L40.8502775,60.9185094 C43.5844717,60.9185094 45.8034952,58.6994859 45.8034952,55.9652917 C45.8034952,53.2310975 43.5844717,51.012026 40.8503255,51.012026 Z" id="路径备份-17" fill="#FFFFFF" fill-rule="nonzero"></path>
            <path d="M33.9157631,70.8061936 C36.1050947,70.8061936 37.8783565,69.0329318 37.8783565,66.8436002 L37.8783565,68.8436002 C37.8783565,71.0329318 36.1050947,72.8061936 33.9157631,72.8061936 L33.9157631,72.8061936 L26.3868837,72.8061936 L26.3868837,70.8061936 L33.9157631,70.8061936 Z M4.19845683,66.9551551 L4.19645683,66.8436002 C4.19645683,69.0329319 5.96971858,70.8061936 8.15905019,70.8061936 L15.6879296,70.8061936 L15.6879296,72.8061936 L8.15905019,72.8061936 C5.96971858,72.8061936 4.19645683,71.0329319 4.19645683,68.8436002 L4.19645683,68.8436002 L4.19845683,66.9551551 Z M4.20845683,48.6151551 L7.16837781,48.6157667 C10.1204883,48.6157667 12.5178549,51.0131332 12.5178549,53.9652437 C12.5178549,54.3071965 12.4856885,54.6417061 12.4242196,54.9659087 C11.9556078,52.4904144 9.77888694,50.6157667 7.16837781,50.6157667 L7.16837781,50.6157667 L4.20633808,50.6157667 L4.20845683,48.6151551 Z M26.3868837,69.8342725 C26.3868837,66.8821621 23.9895171,64.4847955 21.0374066,64.4847955 C18.0852962,64.4847955 15.6879296,66.8821621 15.6879296,69.8342725 L15.6879296,69.8342725 L15.6879296,67.8342725 C15.6879296,64.8821621 18.0852962,62.4847955 21.0374066,62.4847955 C23.9895171,62.4847955 26.3868837,64.8821621 26.3868837,67.8342725 Z M37.8783565,58.9185094 L40.8502775,58.9185094 C43.2416393,58.9185094 45.2389224,57.2210721 45.7021923,54.9661317 C45.7686797,55.2884144 45.8034952,55.622812 45.8034952,55.9652917 C45.8034952,58.6994859 43.5844717,60.9185094 40.8502775,60.9185094 L40.8502775,60.9185094 L37.8783565,60.9185094 L37.8783565,58.9185094 Z" id="形状结合备份" fill="url(#linearGradient-2)" fill-rule="nonzero"></path>
        </g>
    </g>
</svg>