<?xml version="1.0" encoding="UTF-8"?>
<svg width="239px" height="164px" viewBox="0 0 239 164" version="1.1" xmlns="http://www.w3.org/2000/svg" xmlns:xlink="http://www.w3.org/1999/xlink">
    <title>自定义</title>
    <defs>
        <filter x="-20.3%" y="-28.8%" width="140.5%" height="157.7%" filterUnits="objectBoundingBox" id="filter-1">
            <feGaussianBlur stdDeviation="10" in="SourceGraphic"></feGaussianBlur>
        </filter>
        <filter x="-43.5%" y="-28.8%" width="187.0%" height="157.7%" filterUnits="objectBoundingBox" id="filter-2">
            <feGaussianBlur stdDeviation="10" in="SourceGraphic"></feGaussianBlur>
        </filter>
        <linearGradient x1="31.8296421%" y1="100%" x2="66.175006%" y2="28.2593882%" id="linearGradient-3">
            <stop stop-color="#BCB0FF" offset="0%"></stop>
            <stop stop-color="#7E7CFF" offset="100%"></stop>
        </linearGradient>
        <filter x="-47.8%" y="-28.8%" width="195.7%" height="157.7%" filterUnits="objectBoundingBox" id="filter-4">
            <feGaussianBlur stdDeviation="10" in="SourceGraphic"></feGaussianBlur>
        </filter>
        <linearGradient x1="33.1896752%" y1="100%" x2="64.9643229%" y2="28.2593882%" id="linearGradient-5">
            <stop stop-color="#BCB0FF" offset="0%"></stop>
            <stop stop-color="#7E7CFF" offset="100%"></stop>
        </linearGradient>
        <linearGradient x1="59.2873358%" y1="-64.1990215%" x2="59.2873358%" y2="113.535858%" id="linearGradient-6">
            <stop stop-color="#8A86FF" stop-opacity="0.3" offset="0%"></stop>
            <stop stop-color="#FFFFFF" offset="100%"></stop>
        </linearGradient>
    </defs>
    <g id="页面-1" stroke="none" stroke-width="1" fill="none" fill-rule="evenodd">
        <g id="自定义" transform="translate(30.000000, 23.997302)">
            <path d="M4,6.00269835 L175,6.00269835 C177.209139,6.00269835 179,7.79355936 179,10.0026984 L179,106.002698 C179,108.211837 177.209139,110.002698 175,110.002698 L4,110.002698 C1.790861,110.002698 1.13957379e-13,108.211837 1.13686838e-13,106.002698 L1.13686838e-13,10.0026984 C1.13416296e-13,7.79355936 1.790861,6.00269835 4,6.00269835 Z" id="蒙版" opacity="0.6"></path>
            <path d="M174.650002,6.00539671 C176.859141,6.00539671 178.650002,7.79625771 178.650002,10.0053967 L178.650002,106.005397 C178.650002,108.214536 176.859141,110.005397 174.650002,110.005397 L67.9334365,110.006794 C68.3647057,105.731593 68.5855957,101.394291 68.5855957,97.0053967 C68.5855957,61.4077096 54.0541314,29.2040278 30.5995499,6.00269835 L174.650002,6.00539671 Z" id="路径" fill="#DADBE3" opacity="0.6" filter="url(#filter-1)"></path>
            <path d="M30.9701287,6.00269835 C54.4247103,29.2040278 68.9561746,61.4077096 68.9561746,97.0053967 C68.9561746,101.393948 68.7353191,105.730916 68.3041164,110.005792 L4,110.005792 C1.790861,110.005792 1.13686838e-13,108.214536 1.13686838e-13,106.005397 L1.13686838e-13,10.0053967 C1.13686838e-13,7.79625771 1.790861,6.00539671 4,6.00539671 L30.9701287,6.00269835 Z" id="路径" fill="#F1F1FF" opacity="0.6" filter="url(#filter-2)"></path>
            <path d="M62.6961175,97.0041913 C62.6961175,101.396997 62.4600813,105.734673 62,110.005229 L4,110.005229 C1.790861,110.005229 1.13686838e-13,108.21333 1.13686838e-13,106.004191 L1.13686838e-13,10.0041913 C1.13686838e-13,7.79505232 1.790861,6.00419132 4,6.00419132 L20.9216167,6.00269835 C46.4992788,28.0095448 62.6961175,60.6153809 62.6961175,97.0041913 Z" id="路径" fill="url(#linearGradient-3)" opacity="0.200642885" filter="url(#filter-4)"></path>
            <path d="M4,0.0026983544 L176,0.0026983544 C178.209139,0.0026983544 180,1.79355936 180,4.00269835 L180,100.002698 C180,102.211837 178.209139,104.002698 176,104.002698 L4,104.002698 C1.790861,104.002698 2.705415e-16,102.211837 0,100.002698 L0,4.00269835 C-2.705415e-16,1.79355936 1.790861,0.0026983544 4,0.0026983544 Z" id="B3备份" fill="#FFFFFF"></path>
            <path d="M30.3180705,0 C53.7726521,23.2013294 68.3041164,55.4050112 68.3041164,91.0026984 C68.3041164,95.3912499 68.0832609,99.7282179 67.6520582,104.003094 L4,104.003094 C1.790861,104.003094 1.13686838e-13,102.211837 1.13686838e-13,100.002698 L1.13686838e-13,4.00269835 C1.13686838e-13,1.79355936 1.790861,0.0026983544 4,0.0026983544 L30.3180705,0 Z" id="路径" fill="#F1F1FF"></path>
            <path d="M60.3041164,91.0026984 C60.3041164,95.3955039 60.0680803,99.7331802 59.6079989,104.003736 L4,104.003736 C1.790861,104.003736 1.13686838e-13,102.211837 1.13686838e-13,100.002698 L1.13686838e-13,4.00269835 C1.13686838e-13,1.79355936 1.790861,0.0026983544 4,0.0026983544 L18.5296156,0.0012053906 C44.1072777,22.0080518 60.3041164,54.6138879 60.3041164,91.0026984 Z" id="路径" fill="url(#linearGradient-5)"></path>
            <rect id="矩形" fill="#000000" fill-rule="nonzero" opacity="0" x="2" y="28.0026984" width="48" height="48"></rect>
            <path d="M40.8503255,51.012026 L37.8784045,51.012026 L37.8784045,43.0868873 C37.8784045,40.8975556 36.1051427,39.1242939 33.9158111,39.1242939 L25.9906244,39.1242939 L25.9906244,36.1523729 C25.9906244,33.4181786 23.7716009,31.1991551 21.0374066,31.1991551 C18.3032124,31.1991551 16.0841889,33.4181786 16.0841889,36.1523729 L16.0841889,39.1242939 L8.15905014,39.1242939 C5.96971848,39.1242939 4.21626733,40.8975557 4.21626733,43.0868873 L4.20633808,50.6157667 L7.16837781,50.6157667 C10.1204883,50.6157667 12.5178549,53.0131332 12.5178549,55.9652437 C12.5178549,58.9173542 10.1204883,61.3147208 7.16837781,61.3147208 L4.20638608,61.3147208 L4.19645683,68.8436002 C4.19645683,71.0329319 5.96971858,72.8061936 8.15905019,72.8061936 L15.6879296,72.8061936 L15.6879296,69.8342725 C15.6879296,66.8821621 18.0852962,64.4847955 21.0374066,64.4847955 C23.9895171,64.4847955 26.3868837,66.8821621 26.3868837,69.8342725 L26.3868837,72.8061936 L33.9157631,72.8061936 C36.1050948,72.8061936 37.8783565,71.0329318 37.8783565,68.8436002 L37.8783565,60.9185094 L40.8502775,60.9185094 C43.5844717,60.9185094 45.8034952,58.6994859 45.8034952,55.9652917 C45.8034952,53.2310975 43.5844717,51.012026 40.8503255,51.012026 Z" id="路径" fill="#FFFFFF" fill-rule="nonzero"></path>
            <path d="M33.9157631,70.8061936 C36.1050947,70.8061936 37.8783565,69.0329318 37.8783565,66.8436002 L37.8783565,68.8436002 C37.8783565,71.0329318 36.1050947,72.8061936 33.9157631,72.8061936 L33.9157631,72.8061936 L26.3868837,72.8061936 L26.3868837,70.8061936 L33.9157631,70.8061936 Z M4.19845683,66.9551551 L4.19645683,66.8436002 C4.19645683,69.0329319 5.96971858,70.8061936 8.15905019,70.8061936 L15.6879296,70.8061936 L15.6879296,72.8061936 L8.15905019,72.8061936 C5.96971858,72.8061936 4.19645683,71.0329319 4.19645683,68.8436002 L4.19645683,68.8436002 L4.19845683,66.9551551 Z M4.20845683,48.6151551 L7.16837781,48.6157667 C10.1204883,48.6157667 12.5178549,51.0131332 12.5178549,53.9652437 C12.5178549,54.3071965 12.4856885,54.6417061 12.4242196,54.9659087 C11.9556078,52.4904144 9.77888694,50.6157667 7.16837781,50.6157667 L7.16837781,50.6157667 L4.20633808,50.6157667 L4.20845683,48.6151551 Z M26.3868837,69.8342725 C26.3868837,66.8821621 23.9895171,64.4847955 21.0374066,64.4847955 C18.0852962,64.4847955 15.6879296,66.8821621 15.6879296,69.8342725 L15.6879296,69.8342725 L15.6879296,67.8342725 C15.6879296,64.8821621 18.0852962,62.4847955 21.0374066,62.4847955 C23.9895171,62.4847955 26.3868837,64.8821621 26.3868837,67.8342725 Z M37.8783565,58.9185094 L40.8502775,58.9185094 C43.2416393,58.9185094 45.2389224,57.2210721 45.7021923,54.9661317 C45.7686797,55.2884144 45.8034952,55.622812 45.8034952,55.9652917 C45.8034952,58.6994859 43.5844717,60.9185094 40.8502775,60.9185094 L40.8502775,60.9185094 L37.8783565,60.9185094 L37.8783565,58.9185094 Z" id="形状结合" fill="url(#linearGradient-6)" fill-rule="nonzero"></path>
        </g>
    </g>
</svg>